<?xml version="1.0" encoding="utf-8"?>
<!-- Generator: Adobe Illustrator 21.1.0, SVG Export Plug-In . SVG Version: 6.00 Build 0)  -->
<svg version="1.1" id="Layer_1" xmlns="http://www.w3.org/2000/svg" xmlns:xlink="http://www.w3.org/1999/xlink" x="0px" y="0px"
	 viewBox="0 0 126.8 110" style="enable-background:new 0 0 126.8 110;" xml:space="preserve">
<style type="text/css">
	.st0{fill:none;}
	.st1{fill:url(#SVGID_1_);}
	.st2{fill:#414042;}
</style>
<title>ba</title>
<g>
	<g>
		<polygon class="st0" points="79.7,27.1 79.7,27.1 79.7,27.1 		"/>
		
			<linearGradient id="SVGID_1_" gradientUnits="userSpaceOnUse" x1="-1972.8766" y1="161.2384" x2="-1972.4479" y2="161.2384" gradientTransform="matrix(0 -63.5174 -63.5174 0 10304.5459 -125244.8203)">
			<stop  offset="0" style="stop-color:#00B9F2"/>
			<stop  offset="5.474796e-02" style="stop-color:#28C1E7"/>
			<stop  offset="0.1769" style="stop-color:#8CD4CC"/>
			<stop  offset="0.2124" style="stop-color:#AADAC4"/>
			<stop  offset="0.3136" style="stop-color:#CAE4B6"/>
			<stop  offset="0.4164" style="stop-color:#EFF0A6"/>
			<stop  offset="0.4883" style="stop-color:#F0EE9E"/>
			<stop  offset="0.5979" style="stop-color:#F1EA89"/>
			<stop  offset="0.7316" style="stop-color:#F4E367"/>
			<stop  offset="0.8829" style="stop-color:#F8D937"/>
			<stop  offset="1" style="stop-color:#FCD10D"/>
			<stop  offset="1" style="stop-color:#FCD900"/>
		</linearGradient>
		<path class="st1" d="M86.9,31.5c-1.3-2.6-4-4.4-7.2-4.4l0,0c-3.1,0-5.9,1.8-7.2,4.4L61.8,52.4c-1.2-2.1-3.1-3.8-5.4-4.7
			c2.6-1.9,4.3-4.9,4.3-8.4c0-4-2.3-7.4-5.6-9.2c-2.9-1.5-6.2-2.4-9.8-2.4H29.1c-3.3,0-6,2.7-6,6v30c0,3.3,2.7,6,6,6h5.8h11.6
			c3.4,0,6.6-0.7,9.5-1.9l1.1-0.5c0.1,0,0.1-0.1,0.2-0.1c1,1.7,3,2.9,5.1,2.9c2.4,0,4.5-1.4,5.5-3.5c0.5-1.1,1.5-1.9,2.8-1.9h18.1
			c1.3,0.1,2.3,0.8,2.8,1.9c0.9,2.1,3,3.5,5.5,3.5c3.3,0,6-2.7,6-6c0-1.1-0.3-2.1-0.8-3L86.9,31.5z"/>
	</g>
</g>
<g>
	<path class="st2" d="M25.9,80.7h-1.2l-1.9-5.8H24l1.3,4.5l1.3-4.5h1.2L25.9,80.7z"/>
	<path class="st2" d="M31.9,80.7h-1v-0.5c-0.3,0.3-0.8,0.5-1.3,0.5c-1.1,0-2-1-2-2.2c0-1.3,0.9-2.2,2-2.2c0.5,0,1,0.2,1.3,0.5v-0.5
		h1V80.7z M29.7,77.4c-0.6,0-1.1,0.5-1.1,1.2c0,0.7,0.5,1.2,1.1,1.2c0.6,0,1.1-0.5,1.1-1.2C30.8,77.9,30.3,77.4,29.7,77.4z"/>
	<path class="st2" d="M39.4,80.7h-1.1v-2.5c0-0.2-0.1-0.8-0.8-0.8c-0.5,0-0.8,0.4-0.8,0.8v2.5h-1.1v-2.5c0-0.2-0.1-0.8-0.8-0.8
		c-0.5,0-0.8,0.4-0.8,0.8v2.5h-1.1v-4.3h1.1v0.4c0.3-0.3,0.6-0.5,1.1-0.5c0.5,0,1,0.2,1.3,0.6c0.3-0.4,0.8-0.6,1.3-0.6
		c1.1,0,1.8,0.8,1.8,1.9V80.7z"/>
	<path class="st2" d="M44.4,78.6c0,1.3-1,2.2-2.2,2.2s-2.2-1-2.2-2.2c0-1.3,1-2.3,2.2-2.3S44.4,77.3,44.4,78.6z M43.3,78.6
		c0-0.7-0.5-1.3-1.1-1.3s-1.1,0.5-1.1,1.3c0,0.7,0.5,1.2,1.1,1.2S43.3,79.3,43.3,78.6z"/>
	<path class="st2" d="M46.9,80.8c-1.1,0-1.9-0.6-2-1.5h1.1c0.1,0.4,0.6,0.5,0.9,0.5c0.4,0,0.8-0.1,0.8-0.4c0-0.2-0.2-0.3-0.9-0.5
		c-0.8-0.1-1.8-0.3-1.8-1.3c0-0.7,0.6-1.4,1.8-1.4c1,0,1.7,0.5,1.9,1.3h-1.1c-0.1-0.2-0.3-0.4-0.7-0.4c-0.5,0-0.7,0.2-0.7,0.3
		c0,0.2,0.3,0.3,0.8,0.4c1.1,0.2,1.8,0.4,1.8,1.3C48.7,80.2,48,80.8,46.9,80.8z"/>
	<path class="st2" d="M54.8,80.7H52v-5.8h2.7c1.2,0,1.7,0.6,1.7,1.6c0,0.5-0.2,0.9-0.6,1.1c0.5,0.3,0.8,0.7,0.8,1.4
		C56.6,80.1,55.9,80.7,54.8,80.7z M53.1,75.9v1.3h1.6c0.4,0,0.7-0.3,0.7-0.6c0-0.4-0.3-0.6-0.7-0.6H53.1z M54.6,78.2h-1.5v1.5h1.6
		c0.4,0,0.8-0.2,0.8-0.7C55.5,78.5,55.2,78.2,54.6,78.2z"/>
	<path class="st2" d="M61,80.7h-1v-0.4c-0.3,0.3-0.6,0.5-1.1,0.5c-1,0-1.7-0.8-1.7-1.9v-2.5h1.1v2.5c0,0.2,0.1,0.8,0.8,0.8
		c0.5,0,0.8-0.4,0.8-0.8v-2.5H61V80.7z"/>
	<path class="st2" d="M62.8,79c0.1,0.5,0.6,0.8,1.1,0.8c0.4,0,0.7-0.2,0.9-0.5H66c-0.2,0.9-1,1.5-2.1,1.5c-1.2,0-2.2-1-2.2-2.2
		c0-1.2,1-2.3,2.2-2.3c1.3,0,2.3,1,2.2,2.7H62.8z M65,78.1c-0.1-0.5-0.5-0.8-1.1-0.8c-0.5,0-0.9,0.3-1.1,0.8H65z"/>
	<path class="st2" d="M70.6,80.7h-1.1v-2.5c0-0.2-0.1-0.8-0.8-0.8c-0.5,0-0.8,0.4-0.8,0.8v2.5h-1.1v-4.3h1v0.4
		c0.3-0.3,0.6-0.5,1.1-0.5c1,0,1.7,0.8,1.7,1.9V80.7z"/>
	<path class="st2" d="M75.6,78.6c0,1.3-1,2.2-2.2,2.2s-2.2-1-2.2-2.2c0-1.3,1-2.3,2.2-2.3S75.6,77.3,75.6,78.6z M74.5,78.6
		c0-0.7-0.5-1.3-1.1-1.3c-0.6,0-1.1,0.5-1.1,1.3c0,0.7,0.5,1.2,1.1,1.2C74,79.8,74.5,79.3,74.5,78.6z"/>
	<path class="st2" d="M78,80.8c-1.1,0-1.9-0.6-2-1.5h1.1c0.2,0.4,0.6,0.5,0.9,0.5c0.4,0,0.8-0.1,0.8-0.4c0-0.2-0.1-0.3-0.9-0.5
		c-0.8-0.1-1.8-0.3-1.8-1.3c0-0.7,0.6-1.4,1.8-1.4c1,0,1.7,0.5,1.9,1.3h-1.1c-0.1-0.2-0.3-0.4-0.7-0.4c-0.5,0-0.7,0.2-0.7,0.3
		c0,0.2,0.3,0.3,0.8,0.4c1.1,0.2,1.8,0.4,1.8,1.3C79.9,80.2,79.1,80.8,78,80.8z"/>
	<path class="st2" d="M84.2,79.6l-0.4,1.2h-1.2l2-5.8h1.4l2,5.8h-1.2l-0.4-1.2H84.2z M85.4,76.2l-0.8,2.4h1.6L85.4,76.2z"/>
	<path class="st2" d="M89.7,76h-1.1v-1h1.1V76z M89.7,80.7h-1.1v-4.3h1.1V80.7z"/>
	<path class="st2" d="M94.6,78.4h-1.1v-0.2c0-0.2-0.1-0.8-0.8-0.8c-0.5,0-0.8,0.4-0.8,0.8v2.5h-1.1v-4.3h1v0.4
		c0.3-0.3,0.6-0.5,1.1-0.5c1,0,1.7,0.8,1.7,1.9V78.4z"/>
	<path class="st2" d="M96.1,79c0.1,0.5,0.6,0.8,1.1,0.8c0.4,0,0.7-0.2,0.9-0.5h1.2c-0.2,0.9-1,1.5-2.1,1.5c-1.2,0-2.2-1-2.2-2.2
		c0-1.2,1-2.3,2.2-2.3c1.3,0,2.3,1,2.2,2.7H96.1z M98.2,78.1c-0.1-0.5-0.5-0.8-1.1-0.8c-0.5,0-0.9,0.3-1.1,0.8H98.2z"/>
	<path class="st2" d="M101.8,80.8c-1.1,0-1.9-0.6-2-1.5h1.1c0.2,0.4,0.6,0.5,0.9,0.5c0.4,0,0.8-0.1,0.8-0.4c0-0.2-0.1-0.3-0.9-0.5
		c-0.8-0.1-1.8-0.3-1.8-1.3c0-0.7,0.6-1.4,1.8-1.4c1,0,1.7,0.5,1.9,1.3h-1.1c-0.1-0.2-0.3-0.4-0.7-0.4c-0.5,0-0.7,0.2-0.7,0.3
		c0,0.2,0.3,0.3,0.8,0.4c1.1,0.2,1.8,0.4,1.8,1.3C103.7,80.2,102.9,80.8,101.8,80.8z"/>
</g>
</svg>
