<svg id="Layer_1" data-name="Layer 1" xmlns="http://www.w3.org/2000/svg" viewBox="0 0 121.54 337.44"><defs><style>.cls-1{fill:#2ccaed;}</style></defs><title>WEB IODC - Rediseño-re beta 2</title><circle class="cls-1" cx="1.79" cy="217.81" r="1.79"/><circle class="cls-1" cx="21.45" cy="217.81" r="1.79"/><circle class="cls-1" cx="41.11" cy="217.81" r="1.79"/><circle class="cls-1" cx="60.77" cy="217.81" r="1.79"/><circle class="cls-1" cx="80.43" cy="217.81" r="1.79"/><circle class="cls-1" cx="100.09" cy="217.81" r="1.79"/><circle class="cls-1" cx="119.75" cy="217.81" r="1.79"/><circle class="cls-1" cx="1.79" cy="237.47" r="1.79"/><circle class="cls-1" cx="21.45" cy="237.47" r="1.79"/><circle class="cls-1" cx="41.11" cy="237.47" r="1.79"/><circle class="cls-1" cx="60.77" cy="237.47" r="1.79"/><circle class="cls-1" cx="80.43" cy="237.47" r="1.79"/><circle class="cls-1" cx="100.09" cy="237.47" r="1.79"/><circle class="cls-1" cx="119.75" cy="237.47" r="1.79"/><circle class="cls-1" cx="1.79" cy="257.13" r="1.79"/><circle class="cls-1" cx="21.45" cy="257.13" r="1.79"/><circle class="cls-1" cx="41.11" cy="257.13" r="1.79"/><circle class="cls-1" cx="60.77" cy="257.13" r="1.79"/><circle class="cls-1" cx="80.43" cy="257.13" r="1.79"/><circle class="cls-1" cx="100.09" cy="257.13" r="1.79"/><circle class="cls-1" cx="119.75" cy="257.13" r="1.79"/><circle class="cls-1" cx="1.79" cy="276.67" r="1.79"/><circle class="cls-1" cx="21.45" cy="276.67" r="1.79"/><circle class="cls-1" cx="41.11" cy="276.67" r="1.79"/><circle class="cls-1" cx="60.77" cy="276.67" r="1.79"/><circle class="cls-1" cx="80.43" cy="276.67" r="1.79"/><circle class="cls-1" cx="100.09" cy="276.67" r="1.79"/><circle class="cls-1" cx="119.75" cy="276.67" r="1.79"/><circle class="cls-1" cx="1.79" cy="296.33" r="1.79"/><circle class="cls-1" cx="21.45" cy="296.33" r="1.79"/><circle class="cls-1" cx="41.11" cy="296.33" r="1.79"/><circle class="cls-1" cx="60.77" cy="296.33" r="1.79"/><circle class="cls-1" cx="80.43" cy="296.33" r="1.79"/><circle class="cls-1" cx="100.09" cy="296.33" r="1.79"/><circle class="cls-1" cx="119.75" cy="296.33" r="1.79"/><circle class="cls-1" cx="1.79" cy="315.99" r="1.79"/><circle class="cls-1" cx="21.45" cy="315.99" r="1.79"/><circle class="cls-1" cx="41.11" cy="315.99" r="1.79"/><circle class="cls-1" cx="60.77" cy="315.99" r="1.79"/><circle class="cls-1" cx="80.43" cy="315.99" r="1.79"/><circle class="cls-1" cx="100.09" cy="315.99" r="1.79"/><circle class="cls-1" cx="119.75" cy="315.99" r="1.79"/><circle class="cls-1" cx="1.79" cy="335.65" r="1.79"/><circle class="cls-1" cx="21.45" cy="335.65" r="1.79"/><circle class="cls-1" cx="41.11" cy="335.65" r="1.79"/><circle class="cls-1" cx="60.77" cy="335.65" r="1.79"/><circle class="cls-1" cx="80.43" cy="335.65" r="1.79"/><circle class="cls-1" cx="100.09" cy="335.65" r="1.79"/><circle class="cls-1" cx="119.75" cy="335.65" r="1.79"/><circle class="cls-1" cx="1.79" cy="99.97" r="1.79"/><circle class="cls-1" cx="21.45" cy="99.97" r="1.79"/><circle class="cls-1" cx="41.11" cy="99.97" r="1.79"/><circle class="cls-1" cx="60.77" cy="99.97" r="1.79"/><circle class="cls-1" cx="80.43" cy="99.97" r="1.79"/><circle class="cls-1" cx="100.09" cy="99.97" r="1.79"/><circle class="cls-1" cx="119.75" cy="99.97" r="1.79"/><circle class="cls-1" cx="1.79" cy="119.63" r="1.79"/><circle class="cls-1" cx="21.45" cy="119.63" r="1.79"/><circle class="cls-1" cx="41.11" cy="119.63" r="1.79"/><circle class="cls-1" cx="60.77" cy="119.63" r="1.79"/><circle class="cls-1" cx="80.43" cy="119.63" r="1.79"/><circle class="cls-1" cx="100.09" cy="119.63" r="1.79"/><circle class="cls-1" cx="119.75" cy="119.63" r="1.79"/><circle class="cls-1" cx="1.79" cy="139.29" r="1.79"/><circle class="cls-1" cx="21.45" cy="139.29" r="1.79"/><circle class="cls-1" cx="41.11" cy="139.29" r="1.79"/><circle class="cls-1" cx="60.77" cy="139.29" r="1.79"/><circle class="cls-1" cx="80.43" cy="139.29" r="1.79"/><circle class="cls-1" cx="100.09" cy="139.29" r="1.79"/><circle class="cls-1" cx="119.75" cy="139.29" r="1.79"/><circle class="cls-1" cx="1.79" cy="158.83" r="1.79"/><circle class="cls-1" cx="21.45" cy="158.83" r="1.79"/><circle class="cls-1" cx="41.11" cy="158.83" r="1.79"/><circle class="cls-1" cx="60.77" cy="158.83" r="1.79"/><circle class="cls-1" cx="80.43" cy="158.83" r="1.79"/><circle class="cls-1" cx="100.09" cy="158.83" r="1.79"/><circle class="cls-1" cx="119.75" cy="158.83" r="1.79"/><circle class="cls-1" cx="1.79" cy="178.49" r="1.79"/><circle class="cls-1" cx="21.45" cy="178.49" r="1.79"/><circle class="cls-1" cx="41.11" cy="178.49" r="1.79"/><circle class="cls-1" cx="60.77" cy="178.49" r="1.79"/><circle class="cls-1" cx="80.43" cy="178.49" r="1.79"/><circle class="cls-1" cx="100.09" cy="178.49" r="1.79"/><circle class="cls-1" cx="119.75" cy="178.49" r="1.79"/><circle class="cls-1" cx="1.79" cy="198.15" r="1.79"/><circle class="cls-1" cx="21.45" cy="198.15" r="1.79"/><circle class="cls-1" cx="41.11" cy="198.15" r="1.79"/><circle class="cls-1" cx="60.77" cy="198.15" r="1.79"/><circle class="cls-1" cx="80.43" cy="198.15" r="1.79"/><circle class="cls-1" cx="100.09" cy="198.15" r="1.79"/><circle class="cls-1" cx="119.75" cy="198.15" r="1.79"/><circle class="cls-1" cx="1.79" cy="1.79" r="1.79"/><circle class="cls-1" cx="21.45" cy="1.79" r="1.79"/><circle class="cls-1" cx="41.11" cy="1.79" r="1.79"/><circle class="cls-1" cx="60.77" cy="1.79" r="1.79"/><circle class="cls-1" cx="80.43" cy="1.79" r="1.79"/><circle class="cls-1" cx="100.09" cy="1.79" r="1.79"/><circle class="cls-1" cx="119.75" cy="1.79" r="1.79"/><circle class="cls-1" cx="1.79" cy="21.45" r="1.79"/><circle class="cls-1" cx="21.45" cy="21.45" r="1.79"/><circle class="cls-1" cx="41.11" cy="21.45" r="1.79"/><circle class="cls-1" cx="60.77" cy="21.45" r="1.79"/><circle class="cls-1" cx="80.43" cy="21.45" r="1.79"/><circle class="cls-1" cx="100.09" cy="21.45" r="1.79"/><circle class="cls-1" cx="119.75" cy="21.45" r="1.79"/><circle class="cls-1" cx="1.79" cy="41.11" r="1.79"/><circle class="cls-1" cx="21.45" cy="41.11" r="1.79"/><circle class="cls-1" cx="41.11" cy="41.11" r="1.79"/><circle class="cls-1" cx="60.77" cy="41.11" r="1.79"/><circle class="cls-1" cx="80.43" cy="41.11" r="1.79"/><circle class="cls-1" cx="100.09" cy="41.11" r="1.79"/><circle class="cls-1" cx="119.75" cy="41.11" r="1.79"/><circle class="cls-1" cx="1.79" cy="60.65" r="1.79"/><circle class="cls-1" cx="21.45" cy="60.65" r="1.79"/><circle class="cls-1" cx="41.11" cy="60.65" r="1.79"/><circle class="cls-1" cx="60.77" cy="60.65" r="1.79"/><circle class="cls-1" cx="80.43" cy="60.65" r="1.79"/><circle class="cls-1" cx="100.09" cy="60.65" r="1.79"/><circle class="cls-1" cx="119.75" cy="60.65" r="1.79"/><circle class="cls-1" cx="1.79" cy="80.31" r="1.79"/><circle class="cls-1" cx="21.45" cy="80.31" r="1.79"/><circle class="cls-1" cx="41.11" cy="80.31" r="1.79"/><circle class="cls-1" cx="60.77" cy="80.31" r="1.79"/><circle class="cls-1" cx="80.43" cy="80.31" r="1.79"/><circle class="cls-1" cx="100.09" cy="80.31" r="1.79"/><circle class="cls-1" cx="119.75" cy="80.31" r="1.79"/></svg>