<svg id="Layer_1" data-name="Layer 1" xmlns="http://www.w3.org/2000/svg" viewBox="0 0 179.67 63.41"><defs><style>.cls-1{fill:#2cd3f6;}</style></defs><title>WEB IODC - Rediseño-re beta 2</title><circle class="cls-1" cx="2.64" cy="2.64" r="2.64"/><circle class="cls-1" cx="31.71" cy="2.64" r="2.64"/><circle class="cls-1" cx="60.77" cy="2.64" r="2.64"/><circle class="cls-1" cx="89.83" cy="2.64" r="2.64"/><circle class="cls-1" cx="118.9" cy="2.64" r="2.64"/><circle class="cls-1" cx="147.96" cy="2.64" r="2.64"/><circle class="cls-1" cx="177.02" cy="2.64" r="2.64"/><circle class="cls-1" cx="2.64" cy="31.71" r="2.64"/><circle class="cls-1" cx="31.71" cy="31.71" r="2.64"/><circle class="cls-1" cx="60.77" cy="31.71" r="2.64"/><circle class="cls-1" cx="89.83" cy="31.71" r="2.64"/><circle class="cls-1" cx="118.9" cy="31.71" r="2.64"/><circle class="cls-1" cx="147.96" cy="31.71" r="2.64"/><circle class="cls-1" cx="177.02" cy="31.71" r="2.64"/><circle class="cls-1" cx="2.64" cy="60.77" r="2.64"/><circle class="cls-1" cx="31.71" cy="60.77" r="2.64"/><circle class="cls-1" cx="60.77" cy="60.77" r="2.64"/><circle class="cls-1" cx="89.83" cy="60.77" r="2.64"/><circle class="cls-1" cx="118.9" cy="60.77" r="2.64"/><circle class="cls-1" cx="147.96" cy="60.77" r="2.64"/><circle class="cls-1" cx="177.02" cy="60.77" r="2.64"/></svg>