<svg id="Layer_1" data-name="Layer 1" xmlns="http://www.w3.org/2000/svg" viewBox="0 0 167 110"><title>ILDA</title><path d="M105.16,26.05h17.15L143,83H124.86l-2.39-8.14H104.36L101.81,83H84.18ZM119,62.66l-5.11-17.54h-.16l-5.5,17.54Z" style="fill:#38a0d1"/><path d="M24,26.05H41.5V83H24Z" style="fill:#361a39"/><path d="M87.81,26.05c18.9,0,25.68,14,25.68,28.4C113.49,72,104.24,83,84.38,83H59V26.05H76.58V68.4h6.86C94.27,68.4,96,59.55,96,54.21c0-3.59-1-13.56-13.8-13.56l0-14.6" style="fill:#361a39"/><path d="M41.5,26.05H59.05V68.4H83.67V83H41.5Z" style="fill:#38a0d1"/><path d="M51.34,59.08a3.34,3.34,0,1,0,0-6.68,3.16,3.16,0,0,0-2.71,1.54l-4.25-1.48V59l4.26-1.48A3.13,3.13,0,0,0,51.34,59.08Z" style="fill:#361a39"/></svg>