<?xml version="1.0" encoding="utf-8"?>
<!-- Generator: Adobe Illustrator 21.1.0, SVG Export Plug-In . SVG Version: 6.00 Build 0)  -->
<svg version="1.1" id="Capa_1" xmlns="http://www.w3.org/2000/svg" xmlns:xlink="http://www.w3.org/1999/xlink" x="0px" y="0px"
	 viewBox="0 0 512 512" style="enable-background:new 0 0 512 512;" xml:space="preserve">
<style type="text/css">
	.st0{fill:#5A6C7C;}
</style>
<path id="Shape" class="st0" d="M61.6,136.9c0.6-6.3-1.8-12.5-6.4-16.7L7.4,62.7v-8.6h148.1l114.5,251.1L370.8,54.2H512v8.6
	l-40.8,39.1c-3.5,2.7-5.3,7.1-4.5,11.4v287.4c-0.7,4.4,1,8.8,4.5,11.4l39.8,39.1v8.6H310.7v-8.6l41.3-40.1c4.1-4.1,4.1-5.2,4.1-11.4
	V167.4L241.2,458.9h-15.5L92.1,167.4v195.3c-1.1,8.2,1.6,16.5,7.4,22.4l53.7,65.1v8.6H1v-8.6l53.7-65.1c5.7-5.9,8.3-14.3,6.9-22.4
	V136.9z"/>
</svg>
