<svg id="Layer_1" data-name="Layer 1" xmlns="http://www.w3.org/2000/svg" viewBox="0 0 430 110"><title>presidencia-azul</title><g id="_Group_" data-name="&lt;Group&gt;"><g id="_Group_2" data-name="&lt;Group&gt;"><path id="_Path_" data-name="&lt;Path&gt;" d="M26.4,24.37l-5,.73,5,.72a.15.15,0,0,1,.12.12.14.14,0,0,1-.06.15,5.73,5.73,0,0,1-1.64.64,21.14,21.14,0,0,0-2.13.61,6.48,6.48,0,0,0-.94.4,5.4,5.4,0,0,1,2.09-.08c.06,0,.66.06.85.06s.48,0,.7,0l.08-.05a9.66,9.66,0,0,1,3-1.35.38.38,0,0,1,.48.4.66.66,0,0,1,0,.11,6.16,6.16,0,0,1,.85-.44A10,10,0,0,1,33,25.64a.43.43,0,0,1,.32.12.39.39,0,0,1,.09.33.08.08,0,0,1,0,0,6.53,6.53,0,0,1,1.23-.37,10.37,10.37,0,0,1,3.26,0,.41.41,0,0,1,.3.21.52.52,0,0,1,0,.21,5.23,5.23,0,0,1,1.13-.09,9.89,9.89,0,0,1,3.21.61.39.39,0,0,1,.25.28s0,.06,0,.1a5.82,5.82,0,0,1,2.42.51l.12,0c.43.07,1.28.2,2.2.26a8.46,8.46,0,0,0,1,0,5.62,5.62,0,0,1-2-.73c-.23-.13-.47-.26-.75-.39a9,9,0,0,0-1.92-.59.14.14,0,0,1,0-.28l5-.74-5-.71a.18.18,0,0,1-.12-.12.16.16,0,0,1,.07-.15,5.58,5.58,0,0,1,1.64-.64,18.23,18.23,0,0,0,2.13-.6,5.89,5.89,0,0,0,.93-.4,5.4,5.4,0,0,1-2.09.08c-.26,0-.53-.06-.84-.07a8.55,8.55,0,0,0-2,.19.14.14,0,0,1-.11-.26l4.3-2.58L43,21.08a.14.14,0,0,1-.15-.06.14.14,0,0,1,0-.17,6.09,6.09,0,0,1,1.27-1.22,19.35,19.35,0,0,0,1.74-1.37,7.9,7.9,0,0,0,.71-.72,5.51,5.51,0,0,1-1.9.87,8.34,8.34,0,0,0-.81.26,8.82,8.82,0,0,0-1.77.94.14.14,0,0,1-.2-.2l3-4-4,3a.14.14,0,0,1-.16,0,.15.15,0,0,1-.06-.16,5.38,5.38,0,0,1,.7-1.61,18.42,18.42,0,0,0,1.08-1.93,6.26,6.26,0,0,0,.38-.95,5.52,5.52,0,0,1-1.42,1.54c-.21.17-.42.34-.65.55a7.73,7.73,0,0,0-1.27,1.55.16.16,0,0,1-.18.06.15.15,0,0,1-.08-.17l1.22-4.86-2.57,4.3a.13.13,0,0,1-.15.07.14.14,0,0,1-.11-.12,5.29,5.29,0,0,1,0-1.75c.07-.43.2-1.28.26-2.2a6.68,6.68,0,0,0,0-1,5.63,5.63,0,0,1-.72,2c-.13.23-.26.47-.39.76a8.52,8.52,0,0,0-.58,1.91.15.15,0,0,1-.14.13h0a.15.15,0,0,1-.14-.13l-.72-4.94-.7,4.94a.15.15,0,0,1-.11.12.17.17,0,0,1-.16-.06,6.09,6.09,0,0,1-.64-1.64A19.27,19.27,0,0,0,33,12.61a8.85,8.85,0,0,0-.4-.94,5.58,5.58,0,0,1,.07,2.09c0,.26,0,.54-.06.85a8.34,8.34,0,0,0,.18,2,.14.14,0,0,1-.08.17.14.14,0,0,1-.18-.06l-2.59-4.3,1.25,4.85a.17.17,0,0,1-.06.16.15.15,0,0,1-.16,0,5.57,5.57,0,0,1-1.22-1.27,20.23,20.23,0,0,0-1.37-1.74,8.09,8.09,0,0,0-.73-.72,5.63,5.63,0,0,1,.87,1.91c.08.25.15.51.26.8a8.49,8.49,0,0,0,.94,1.77.15.15,0,0,1,0,.19.14.14,0,0,1-.19,0l-4-3,3,4a.14.14,0,0,1,0,.16.17.17,0,0,1-.16.07,5.92,5.92,0,0,1-1.61-.71,18.42,18.42,0,0,0-1.93-1.08,6.61,6.61,0,0,0-.94-.38,5.61,5.61,0,0,1,1.53,1.42c.17.21.34.42.55.65a8.06,8.06,0,0,0,1.55,1.27.16.16,0,0,1,.06.18.14.14,0,0,1-.17.08l-4.87-1.22,4.31,2.57a.15.15,0,0,1,.07.15.14.14,0,0,1-.12.11,5.36,5.36,0,0,1-1.76,0,19.94,19.94,0,0,0-2.2-.26,8.29,8.29,0,0,0-1,0,5.7,5.7,0,0,1,2,.73,7.47,7.47,0,0,0,.75.38,8.41,8.41,0,0,0,1.92.59.14.14,0,0,1,0,.28Z" style="fill:#f6b810"/><g id="_Group_3" data-name="&lt;Group&gt;"><path id="_Path_2" data-name="&lt;Path&gt;" d="M36.68,21.54c4.16-.66,4.61.53,4.61.53a.37.37,0,0,0,.45.19s.28,0,.14-.36c0,0-.45-1.36-2.66-1.6a8.83,8.83,0,0,0-2.39.07c-.37.06-.47.88-.47.88C36.31,21.61,36.68,21.54,36.68,21.54Z" style="fill:#231f20"/><path id="_Path_3" data-name="&lt;Path&gt;" d="M33.14,22.34a5.08,5.08,0,0,0-1.66-.18,2.5,2.5,0,0,0-2.37,1.23c-.17.39.16.42.16.42a.42.42,0,0,0,.52-.22s.11-.33.88-.52a1,1,0,0,0-.07.36,1,1,0,1,0,1.85-.38,1.28,1.28,0,0,1,.69.62c.06.14.21.2.57.2s.29-.25.29-.25A1.86,1.86,0,0,0,33.14,22.34Z" style="fill:#231f20"/><path id="_Path_4" data-name="&lt;Path&gt;" d="M36.6,23.87c.35,0,.5-.06.57-.2a1.23,1.23,0,0,1,.68-.62,1,1,0,1,0,1.85.38,1,1,0,0,0-.07-.36c.77.19.88.52.88.52a.42.42,0,0,0,.52.22s.33,0,.16-.42a2.5,2.5,0,0,0-2.37-1.23,5.08,5.08,0,0,0-1.66.18,1.83,1.83,0,0,0-.85,1.28S36.21,23.87,36.6,23.87Z" style="fill:#231f20"/><path id="_Path_5" data-name="&lt;Path&gt;" d="M28.56,22.26a.37.37,0,0,0,.45-.19s.46-1.19,4.61-.53c0,0,.38.07.32-.29,0,0-.1-.82-.47-.88a8.75,8.75,0,0,0-2.38-.07c-2.21.24-2.67,1.6-2.67,1.6C28.28,22.23,28.56,22.26,28.56,22.26Z" style="fill:#231f20"/></g><g id="_Group_4" data-name="&lt;Group&gt;"><path id="_Path_6" data-name="&lt;Path&gt;" d="M34.41,53.68h-5a2.5,2.5,0,0,1-2-.84,2.59,2.59,0,0,1-.53-1.25s0-.07,0-.11A4.68,4.68,0,0,1,26.86,50a15.74,15.74,0,0,1,3.08-6.9,2.17,2.17,0,0,1-.35-.15,2,2,0,0,1-.89-2.1,5.54,5.54,0,0,1,1.41-2.4,6.56,6.56,0,0,1,4.65-2.15,5.93,5.93,0,0,1,5.62,3.4,31.33,31.33,0,0,1,3.13,10.62l0,.13a3.14,3.14,0,0,1-.05,1.25l0,.11a2.32,2.32,0,0,1-.51.89,3.28,3.28,0,0,1-2,1,5.52,5.52,0,0,1-.89.07H35.92v7.14H58.47a39.23,39.23,0,0,0-1.85-12,32.76,32.76,0,0,0-5-9.82,24.09,24.09,0,0,0-7.41-6.59,18.17,18.17,0,0,0-18,0A24.2,24.2,0,0,0,18.73,39a32.76,32.76,0,0,0-5,9.82,39.23,39.23,0,0,0-1.85,12H34.41Z" style="fill:#0b8bcb"/></g><g id="_Group_5" data-name="&lt;Group&gt;"><path id="_Path_7" data-name="&lt;Path&gt;" d="M11.86,60.82a39.9,39.9,0,0,0,1.07,9.26C23,68.93,29,67.74,30.82,66.55a5.63,5.63,0,0,1,3.59-1.36V60.82Z" style="fill:#fff"/><path id="_Path_8" data-name="&lt;Path&gt;" d="M35.92,65.36a8.61,8.61,0,0,1,2.31.78h.22a9.92,9.92,0,0,1,3.91.89l1.4.49a66.18,66.18,0,0,0,13.61,2.7,40,40,0,0,0,1.1-9.39H35.92Z" style="fill:#fff"/></g><polygon id="_Path_9" data-name="&lt;Path&gt;" points="33.67 26.02 33.67 26.02 33.67 26.02 33.67 26.02" style="fill:#231f20"/><g id="_Group_6" data-name="&lt;Group&gt;"><path id="_Path_10" data-name="&lt;Path&gt;" d="M28.3,52.05a1,1,0,0,1-.15-.25c2.14-1,3.16-1.23,6.1.63H29.36A1.28,1.28,0,0,1,28.3,52.05Z" style="fill:#e54023"/><path id="_Path_11" data-name="&lt;Path&gt;" d="M39.91,52.43H38.33a6.58,6.58,0,0,1-3.25-1c-3.4-2.19-4.92-1.93-7-1,0-.09,0-.18.05-.28a14.82,14.82,0,0,1,2.56-6,9.84,9.84,0,0,1,1.51-1.65,1.71,1.71,0,0,0,.26-.21.6.6,0,0,0,.09-.85.62.62,0,0,0-.85-.14s-.13.09-.29.23a1.14,1.14,0,0,1-1.17.25.72.72,0,0,1-.26-.8A4.41,4.41,0,0,1,31,39.27l0,0a5.42,5.42,0,0,1,3.74-1.72h.06a4.67,4.67,0,0,1,1.61.24,4.79,4.79,0,0,1,2.81,2.49,26.43,26.43,0,0,1,2.1,5.45A8.9,8.9,0,0,1,39,44.37a.62.62,0,1,0-.79,1,9.33,9.33,0,0,0,3.52,1.74c.16.78.29,1.52.4,2.23a8.57,8.57,0,0,0-2-.7A9.92,9.92,0,0,1,39,48.27a11,11,0,0,1-2.41-1.39.62.62,0,1,0-.77,1,12,12,0,0,0,2.72,1.57,8.66,8.66,0,0,0,1.21.37c1.66.44,2.42.79,2.45,1.65a1,1,0,0,1-.22.36A3,3,0,0,1,39.91,52.43Z" style="fill:#e54023"/></g><g id="_Group_7" data-name="&lt;Group&gt;"><path id="_Path_12" data-name="&lt;Path&gt;" d="M33.29,75.79c-.48-.41-1-.18-1.93.48-.4.28-1.07.84-1,1.37a.48.48,0,0,0,.21.39,2,2,0,0,0,1.26.11,3.44,3.44,0,0,1,1.25-1.42,1.15,1.15,0,0,0,.43-.59A.52.52,0,0,0,33.29,75.79Z" style="fill:#f1b27e"/><path id="_Path_13" data-name="&lt;Path&gt;" d="M32.82,78.55a.78.78,0,0,0,.43.26,2.57,2.57,0,0,0,1.63-.58h0l0,0h0c.17-.1.53-.41.55-.68,0,0,0-.18-.2-.39,0,0-.35-.26-1.05.15A3.2,3.2,0,0,0,32.82,78.55Z" style="fill:#f1b27e"/><path id="_Path_14" data-name="&lt;Path&gt;" d="M28.16,74.13a2.27,2.27,0,0,0-1.74.79c-.25.33-.16.53-.13.6s.32.25.69.31l.3,0a3,3,0,0,1,.89-1.34l.37-.33a1.36,1.36,0,0,0-.33-.06Z" style="fill:#f1b27e"/><path id="_Path_15" data-name="&lt;Path&gt;" d="M30.72,74.64c-.49-.25-1.07,0-1.8.67-.47.45-.63.73-.61,1.06,0,.13.06.46.67.66a2.49,2.49,0,0,0,.35.08,3.31,3.31,0,0,1,1.41-1.72l.36-.24a.33.33,0,0,0,0-.17A.72.72,0,0,0,30.72,74.64Z" style="fill:#f1b27e"/><path id="_Path_16" data-name="&lt;Path&gt;" d="M44.23,74.41a13.83,13.83,0,0,0-3.12-2.87A12.1,12.1,0,0,0,39,70.38a3.36,3.36,0,0,0-2.14-.21h0a3,3,0,0,0-.77.42c-.19.13-.41.28-.66.42a5.82,5.82,0,0,1-2.42.73,2.12,2.12,0,0,1-2.06-.64,1.41,1.41,0,0,1-.23-1.41h0c.17-.45.71-.72,1.4-1.06a7.24,7.24,0,0,0,.84-.44,7.93,7.93,0,0,0,.8-.6c.26-.21.55-.44,1-.77a2.78,2.78,0,0,1,.82-.42c-.28-.05-.6-.09-1-.12a4.49,4.49,0,0,0-3.16,1.15h0c-1,.68-3,1.31-6.09,1.92s-7.06,1.19-12.14,1.77c.16.59.33,1.17.52,1.74a34.77,34.77,0,0,0,2.41,5.75c1.78-.79,6.25-2.8,9.71-4.65a3.32,3.32,0,0,1,2.47-.91,2.37,2.37,0,0,1,1.31.52,2.06,2.06,0,0,1,1.6.1,1.67,1.67,0,0,1,.9.94l.06,0A1.82,1.82,0,0,1,34,75a1.51,1.51,0,0,1,.57,1,1.61,1.61,0,0,1,1.46.36,1.54,1.54,0,0,1,.52,1.28,1.69,1.69,0,0,1-.31.78,2,2,0,0,0,1.09-.11,2.68,2.68,0,0,0,.38-.19,5.75,5.75,0,0,0-.87-1.27.55.55,0,0,1,0-.76.54.54,0,0,1,.76,0,6.65,6.65,0,0,1,1.1,1.68,1,1,0,0,0,.89-.27,1.58,1.58,0,0,0,.3-.42,4.43,4.43,0,0,0-.65-.93A11.32,11.32,0,0,0,37.91,75a.53.53,0,0,1-.13-.75.54.54,0,0,1,.75-.13,11.59,11.59,0,0,1,1.58,1.34,4.75,4.75,0,0,1,.8,1.18,1.18,1.18,0,0,0,1.28-.73,9.6,9.6,0,0,0-3.07-2.75.55.55,0,0,1-.24-.73.54.54,0,0,1,.72-.24,10.53,10.53,0,0,1,3.46,3.09,1.27,1.27,0,0,0,.88-.29A1,1,0,0,0,44.23,74.41Z" style="fill:#f1b27e"/><path id="_Path_17" data-name="&lt;Path&gt;" d="M48.12,69.81c-2.71-.64-4.67-1.27-4.69-1.27h0L42,68a9.1,9.1,0,0,0-3.49-.82h-.86a3.82,3.82,0,0,0-2.28.47c-.44.31-.72.53-1,.73a7.36,7.36,0,0,1-.89.66,7.74,7.74,0,0,1-.95.51,5.82,5.82,0,0,0-.88.5c0,.09,0,.17.11.37s.53.23,1.12.19a4.92,4.92,0,0,0,1.94-.58c.22-.13.42-.26.61-.39a3.5,3.5,0,0,1,1.12-.57c2-.53,4,.8,5.12,1.51a15.22,15.22,0,0,1,3.17,2.85l.09.11,0,0h0a6.11,6.11,0,0,0,1.06.94h0a41.29,41.29,0,0,0,8.06,4.25,34,34,0,0,0,2.53-5.94c.17-.52.32-1.06.47-1.6A56.35,56.35,0,0,1,48.12,69.81Z" style="fill:#f1b27e"/></g><path id="_Path_18" data-name="&lt;Path&gt;" d="M45.11,75.21a2,2,0,0,1-.42.58,2.19,2.19,0,0,1-1.51.59,2.45,2.45,0,0,1-.38.6,2.36,2.36,0,0,1-2,.77,2.83,2.83,0,0,1-.4.53,2.1,2.1,0,0,1-1.92.58,2.72,2.72,0,0,1-.78.45,3.17,3.17,0,0,1-1.81.15v6a.76.76,0,1,1-1.51,0V79.71a2.89,2.89,0,0,1-1,.19,1.87,1.87,0,0,1-.4,0A1.76,1.76,0,0,1,32,79.21a2.92,2.92,0,0,1-2-.29,1.5,1.5,0,0,1-.56-.71,3.09,3.09,0,0,1-.72-.15A2,2,0,0,1,27.35,77a3.26,3.26,0,0,1-.52,0,1.85,1.85,0,0,1-1.53-1,1.66,1.66,0,0,1-.12-.42c-3.21,1.65-6.88,3.31-8.53,4a29.82,29.82,0,0,0,2.08,3.13,24,24,0,0,0,7.41,6.59,19.69,19.69,0,0,0,4,1.68,1.64,1.64,0,0,1,.59-.64c1.29-.85,3.75-.23,4.44,0,.7-.2,3.16-.82,4.45,0a1.64,1.64,0,0,1,.59.64,19.46,19.46,0,0,0,4-1.68,23.84,23.84,0,0,0,7.41-6.59,31.22,31.22,0,0,0,2-2.93A41.25,41.25,0,0,1,45.11,75.21Z" style="fill:#fff"/><path id="_Compound_Path_" data-name="&lt;Compound Path&gt;" d="M63.21,66.4a.47.47,0,0,0-.34-.11c.1-.21.19-.42.27-.64a9.75,9.75,0,0,0,.55-3.28.49.49,0,0,0-.21-.4.46.46,0,0,0-.34-.08,6.36,6.36,0,0,0,.19-.62A9.67,9.67,0,0,0,63.55,58a.45.45,0,0,0-.25-.38.46.46,0,0,0-.34,0c.06-.24.11-.48.15-.73a9.94,9.94,0,0,0-.1-3.33.47.47,0,0,0-.29-.35.39.39,0,0,0-.26,0c0-.17.06-.35.08-.52a9.84,9.84,0,0,0-.26-3.31A.52.52,0,0,0,62,48.9a.49.49,0,0,0-.45.07h0a5.31,5.31,0,0,0,0-.8,9.83,9.83,0,0,0-.71-3.25.46.46,0,0,0-.35-.3.48.48,0,0,0-.37.07c0-.24,0-.49-.06-.74a10,10,0,0,0-1-3.16.48.48,0,0,0-.74-.15c0-.23-.08-.46-.14-.68a9.8,9.8,0,0,0-1.42-3,.47.47,0,0,0-.4-.22.49.49,0,0,0-.4.21,8.39,8.39,0,0,0-.29-.79,10,10,0,0,0-1.88-2.76.49.49,0,0,0-.46-.14.44.44,0,0,0-.29.19,6,6,0,0,0-.44-.78,9.7,9.7,0,0,0-2.25-2.4.46.46,0,0,0-.45-.07.45.45,0,0,0-.28.24,5.53,5.53,0,0,0-2.65-1.87l.61,0a7,7,0,0,0,2.32-.21.61.61,0,0,0,.43-.66.62.62,0,0,0-.58-.54A5.31,5.31,0,0,1,47,26.44l-.41-.23L50,25.7a.61.61,0,0,0,0-1.21L46.58,24c.39-.1.85-.24,1.33-.4A7.12,7.12,0,0,0,50,22.51a.6.6,0,0,0,.14-.77.62.62,0,0,0-.74-.28,5.19,5.19,0,0,1-2.79.35l-.46,0,3-1.78a.61.61,0,0,0,.25-.76.62.62,0,0,0-.72-.36l-3.34.86c.33-.25.7-.56,1.08-.89A7.16,7.16,0,0,0,47.85,17a.61.61,0,0,0-.17-.77.62.62,0,0,0-.79,0,5.09,5.09,0,0,1-2.44,1.39l-.44.14L46.07,15a.6.6,0,0,0-.06-.79.61.61,0,0,0-.8-.06l-2.77,2.07c.21-.36.44-.78.66-1.24a7.28,7.28,0,0,0,.69-2.23.61.61,0,0,0-.45-.65.62.62,0,0,0-.72.33,5.11,5.11,0,0,1-1.72,2.22l-.35.29.84-3.34a.61.61,0,0,0-.36-.72.62.62,0,0,0-.76.25l-1.77,3c0-.41.1-.9.13-1.41a7.12,7.12,0,0,0-.22-2.32.61.61,0,0,0-.66-.43.62.62,0,0,0-.54.58,5.12,5.12,0,0,1-.74,2.71c-.06.13-.13.25-.2.39l-.5-3.4a.62.62,0,0,0-.61-.53h0a.62.62,0,0,0-.6.53l-.48,3.39c-.11-.39-.24-.85-.4-1.31a7,7,0,0,0-1.09-2.06.61.61,0,0,0-1,.59,5.26,5.26,0,0,1,.34,2.79c0,.15,0,.31-.05.47l-1.79-3a.62.62,0,0,0-1.12.47L29.79,15c-.25-.32-.55-.7-.88-1.07a7.43,7.43,0,0,0-1.79-1.49.61.61,0,0,0-.77.17.62.62,0,0,0,0,.79,5.27,5.27,0,0,1,1.39,2.44c0,.14.08.29.13.45l-2.79-2.07a.62.62,0,0,0-.8.06.61.61,0,0,0,0,.8l2.07,2.76c-.36-.2-.78-.43-1.23-.65a7,7,0,0,0-2.23-.69.61.61,0,0,0-.32,1.16,5.19,5.19,0,0,1,2.22,1.73l.29.35-3.36-.84A.61.61,0,0,0,21.24,20l3,1.77c-.41-.05-.89-.11-1.39-.14a7.56,7.56,0,0,0-2.33.22.62.62,0,0,0-.42.67.61.61,0,0,0,.58.53,5.31,5.31,0,0,1,2.71.74l.39.21-3.41.51a.6.6,0,0,0-.53.6.62.62,0,0,0,.53.61l3.44.5c-.4.11-.87.24-1.35.41a7.23,7.23,0,0,0-2.06,1.09.61.61,0,0,0,.6,1.05,5.57,5.57,0,0,1,1.81-.4,13,13,0,0,0-1.53,1.49c-.13.17-.26.35-.38.53a.47.47,0,0,0-.26-.2.46.46,0,0,0-.45.07,10,10,0,0,0-2.3,2.43,6.52,6.52,0,0,0-.43.77.51.51,0,0,0-.33-.22.49.49,0,0,0-.43.15,9.74,9.74,0,0,0-1.88,2.76,7.71,7.71,0,0,0-.29.75.44.44,0,0,0-.31-.13.48.48,0,0,0-.41.19,9.9,9.9,0,0,0-1.54,3,7.2,7.2,0,0,0-.19.77.51.51,0,0,0-.41-.16.49.49,0,0,0-.38.26,9.64,9.64,0,0,0-1.07,3.15,6.34,6.34,0,0,0-.07.75.53.53,0,0,0-.42-.1.51.51,0,0,0-.34.3,9.94,9.94,0,0,0-.67,3.27c0,.24,0,.49,0,.73a.49.49,0,0,0-.41,0,.46.46,0,0,0-.31.34,9.89,9.89,0,0,0-.26,3.32,5,5,0,0,0,.09.56.54.54,0,0,0-.22,0,.47.47,0,0,0-.29.35,9.94,9.94,0,0,0-.1,3.33,6.41,6.41,0,0,0,.16.76.41.41,0,0,0-.19.05.47.47,0,0,0-.27.37A9.89,9.89,0,0,0,7,61.3a6.52,6.52,0,0,0,.18.63.51.51,0,0,0-.32.07.48.48,0,0,0-.23.4,9.76,9.76,0,0,0,.46,3.3,6.38,6.38,0,0,0,.33.82l-.06,0a.49.49,0,0,0-.45.11.47.47,0,0,0-.15.43,9.77,9.77,0,0,0,1,3.17l.3.5a.52.52,0,0,0-.22.14.47.47,0,0,0-.12.44A9.66,9.66,0,0,0,9,74.37a6.27,6.27,0,0,0,.42.59.45.45,0,0,0-.33.19.47.47,0,0,0-.07.46,10.06,10.06,0,0,0,1.61,2.92c.14.17.29.33.45.49a.49.49,0,0,0-.3.68,10,10,0,0,0,1.95,2.72,4.81,4.81,0,0,0,.48.42.51.51,0,0,0-.25.25.5.5,0,0,0,0,.46,9.89,9.89,0,0,0,2.21,2.5,7.21,7.21,0,0,0,.76.51l-.1,0a.46.46,0,0,0-.31.34.49.49,0,0,0,.12.45,11.26,11.26,0,0,0,2.58,2.06,6.75,6.75,0,0,0,2.13.81,4.7,4.7,0,0,0,1.71,0l.1,0A25.46,25.46,0,0,0,27,92.9a23.59,23.59,0,0,0,4.21,1.33l.84.16a3.82,3.82,0,0,1-1.61-1,2.75,2.75,0,0,1-.19-.28,22.48,22.48,0,0,1-2.89-1,24.42,24.42,0,0,1-4.54-2.52.12.12,0,0,1,0-.05A4.88,4.88,0,0,0,22.64,88a21.67,21.67,0,0,0,3,2.09,20.52,20.52,0,0,0,4.28,1.78,2.11,2.11,0,0,1,0-.25,1.87,1.87,0,0,1,.21-.68,19.69,19.69,0,0,1-4-1.68,24,24,0,0,1-7.41-6.59,29.82,29.82,0,0,1-2.08-3.13c1.65-.72,5.32-2.38,8.53-4a1.66,1.66,0,0,0,.12.42,1.85,1.85,0,0,0,1.53,1,3.26,3.26,0,0,0,.52,0,2,2,0,0,0,1.32,1.11,3.09,3.09,0,0,0,.72.15,1.5,1.5,0,0,0,.56.71,2.92,2.92,0,0,0,2,.29,1.76,1.76,0,0,0,1.06.65,1.87,1.87,0,0,0,.4,0,2.89,2.89,0,0,0,1-.19v5.73a.76.76,0,1,0,1.51,0v-6a3.17,3.17,0,0,0,1.81-.15,2.72,2.72,0,0,0,.78-.45,2.1,2.1,0,0,0,1.92-.58,2.83,2.83,0,0,0,.4-.53,2.36,2.36,0,0,0,2-.77,2.45,2.45,0,0,0,.38-.6,2.19,2.19,0,0,0,1.51-.59,2,2,0,0,0,.42-.58,41.25,41.25,0,0,0,8.46,4.55,31.22,31.22,0,0,1-2,2.93,23.84,23.84,0,0,1-7.41,6.59,19.46,19.46,0,0,1-4,1.68,1.87,1.87,0,0,1,.21.68,2.11,2.11,0,0,1,0,.25,20.52,20.52,0,0,0,4.28-1.78,21.91,21.91,0,0,0,3-2.12,5,5,0,0,0-.17,1.49s0,0,0,.07a20.45,20.45,0,0,1-3.33,2,22,22,0,0,1-4,1.49l-.17,0c0,.08-.1.16-.16.24a3.82,3.82,0,0,1-1.65,1.06,19.84,19.84,0,0,0,2.24-.47,22.36,22.36,0,0,0,4.14-1.56,20,20,0,0,0,3.48-2.12l.08,0a4.75,4.75,0,0,0,1.72,0,6.75,6.75,0,0,0,2.13-.81,11.26,11.26,0,0,0,2.58-2.06.47.47,0,0,0,.12-.45.45.45,0,0,0-.31-.34l-.07,0a7.43,7.43,0,0,0,.77-.52,9.92,9.92,0,0,0,2.22-2.5.47.47,0,0,0,0-.46.51.51,0,0,0-.25-.25,6.4,6.4,0,0,0,.49-.42,10,10,0,0,0,1.94-2.72.5.5,0,0,0,0-.46.49.49,0,0,0-.35-.23c.17-.17.33-.35.49-.54a9.93,9.93,0,0,0,1.61-2.92.49.49,0,0,0-.06-.44.51.51,0,0,0-.38-.21h0a5.52,5.52,0,0,0,.4-.55,9.78,9.78,0,0,0,1.31-3.07.47.47,0,0,0-.11-.44.48.48,0,0,0-.39-.16c.13-.21.26-.43.37-.65a9.83,9.83,0,0,0,.92-3.2A.48.48,0,0,0,63.21,66.4Zm-.5-7.7a0,0,0,0,1,0,0s0,0,0,0a8,8,0,0,1-.23,2.3,5.52,5.52,0,0,1-.82,1.86A4.23,4.23,0,0,1,60.6,64h0a6.47,6.47,0,0,1-1.26-4.38l0,0h0a7.13,7.13,0,0,1,1.06,1.54.37.37,0,0,0,.35.2.35.35,0,0,0,.31-.24A5.77,5.77,0,0,1,62.71,58.7Zm-.47-4.4h0a0,0,0,0,1,0,0,8.47,8.47,0,0,1,0,2.31,5.48,5.48,0,0,1-.64,1.94,4.41,4.41,0,0,1-1,1.23h0c-1.17-1-1.52-3.06-1.63-4.22l0,0h0A7.35,7.35,0,0,1,60.2,57a.38.38,0,0,0,.36.17.36.36,0,0,0,.3-.27A5.74,5.74,0,0,1,62.24,54.3Zm-.69-4.19h0v0a8.39,8.39,0,0,1,.11,2.32,5.7,5.7,0,0,1-.55,2,4.57,4.57,0,0,1-.92,1.26h0a5.61,5.61,0,0,1-1.66-2.93,9.88,9.88,0,0,1-.22-1.23l0,0h0a8,8,0,0,1,1.29,1.38A.35.35,0,0,0,60,53a.37.37,0,0,0,.28-.28A5.74,5.74,0,0,1,61.55,50.11ZM28,50.48c0-.09,0-.18.05-.28a14.82,14.82,0,0,1,2.56-6,9.84,9.84,0,0,1,1.51-1.65,1.71,1.71,0,0,0,.26-.21.6.6,0,0,0,.09-.85.62.62,0,0,0-.85-.14s-.13.09-.29.23a1.14,1.14,0,0,1-1.17.25.72.72,0,0,1-.26-.8A4.41,4.41,0,0,1,31,39.27l0,0a5.42,5.42,0,0,1,3.74-1.72h.06a4.69,4.69,0,0,1,1.61.24,4.79,4.79,0,0,1,2.81,2.49,26.43,26.43,0,0,1,2.1,5.45A8.9,8.9,0,0,1,39,44.37a.62.62,0,1,0-.79,1,9.33,9.33,0,0,0,3.52,1.74c.16.78.29,1.52.4,2.23a8.57,8.57,0,0,0-2-.7A9.92,9.92,0,0,1,39,48.27a11,11,0,0,1-2.41-1.39.62.62,0,1,0-.77,1,12,12,0,0,0,2.72,1.57,8.66,8.66,0,0,0,1.21.37c1.66.44,2.42.79,2.45,1.65a1,1,0,0,1-.22.36,3,3,0,0,1-2.11.62H38.33a6.58,6.58,0,0,1-3.25-1C31.68,49.29,30.16,49.55,28,50.48Zm6.21,2H29.36a1.28,1.28,0,0,1-1.06-.38,1,1,0,0,1-.15-.25C30.29,50.83,31.31,50.57,34.25,52.43Zm1.67,8.39V53.68h4.14a5.52,5.52,0,0,0,.89-.07,3.28,3.28,0,0,0,2-1,2.32,2.32,0,0,0,.51-.89l0-.11a3.14,3.14,0,0,0,.05-1.25l0-.13a31.33,31.33,0,0,0-3.13-10.62,5.93,5.93,0,0,0-5.62-3.4,6.56,6.56,0,0,0-4.65,2.15,5.54,5.54,0,0,0-1.41,2.4,2,2,0,0,0,.89,2.1,2.17,2.17,0,0,0,.35.15A15.74,15.74,0,0,0,26.86,50a4.68,4.68,0,0,0-.07,1.52s0,.08,0,.11a2.59,2.59,0,0,0,.53,1.25,2.5,2.5,0,0,0,2,.84h5V65.19a5.63,5.63,0,0,0-3.59,1.36C29,67.74,23,68.93,12.93,70.08a39.9,39.9,0,0,1-1.07-9.26,39.23,39.23,0,0,1,1.85-12,32.76,32.76,0,0,1,5-9.82,24.2,24.2,0,0,1,7.41-6.59,18.17,18.17,0,0,1,18,0A24.09,24.09,0,0,1,51.6,39a33,33,0,0,1,5,9.82,39.53,39.53,0,0,1,1.84,12,40,40,0,0,1-1.1,9.39,66.18,66.18,0,0,1-13.61-2.7L42.36,67a9.92,9.92,0,0,0-3.91-.89h-.22a8.61,8.61,0,0,0-2.31-.78Zm9.53-32.27a9.45,9.45,0,0,1-1.6.46,6.22,6.22,0,0,1-1.18.12,3.85,3.85,0,0,1-2.25-.65,0,0,0,0,1,0,0v0a5.08,5.08,0,0,1,1.33-.52,4.73,4.73,0,0,1,1.91-.06,5.59,5.59,0,0,1,1.8.65s0,0,0,0S45.46,28.54,45.45,28.55ZM46.34,31v0h0a4.11,4.11,0,0,1-1.16.22H45a4.92,4.92,0,0,1-3-1.14s0,0,0,0l0,0a5.6,5.6,0,0,1,1.31-.25A3.75,3.75,0,0,1,46.34,31Zm-4.83-3.87a7,7,0,0,1-2.19.58A.38.38,0,0,0,39,28a.39.39,0,0,0,.15.39,7.08,7.08,0,0,1,1.44,1.33v0h0a5.68,5.68,0,0,1-4.24-1.93,0,0,0,0,1,0,0,3.28,3.28,0,0,1,1.16-.7,6.58,6.58,0,0,1,4,0,0,0,0,0,1,0,0A0,0,0,0,1,41.51,27.12ZM37,26.43a6.17,6.17,0,0,1-2,1,.36.36,0,0,0,0,.68,6.13,6.13,0,0,1,1.62.95,0,0,0,0,1,0,0s0,0,0,0a7.71,7.71,0,0,1-.9,0,6.06,6.06,0,0,1-3.61-1s0,0,0,0a3.46,3.46,0,0,1,1-.92,6.59,6.59,0,0,1,4-.78,0,0,0,0,1,0,0S37,26.42,37,26.43Zm-4.63.07a4.92,4.92,0,0,1-1.85,1.42.36.36,0,0,0,.09.68,7.85,7.85,0,0,1,1.8.6,0,0,0,0,1,0,0l0,0a8.29,8.29,0,0,1-1.19.3,7.65,7.65,0,0,1-1.25.11,5.11,5.11,0,0,1-2.15-.44s0,0,0,0a3.4,3.4,0,0,1,.76-1.11,6.65,6.65,0,0,1,3.8-1.62h0A0,0,0,0,1,32.37,26.5ZM28,27.27a5.72,5.72,0,0,1-1.63,2.07.37.37,0,0,0-.1.4.37.37,0,0,0,.34.24h0a8.92,8.92,0,0,1,.92.06,6.09,6.09,0,0,1,1,.21,0,0,0,0,1,0,0s0,0,0,0a8.82,8.82,0,0,1-1.15.49,6.7,6.7,0,0,1-2.18.39A4.45,4.45,0,0,1,23.94,31s0,0,0,0c.15-.76.85-2.64,4.08-3.73h0S28.05,27.26,28,27.27Zm32.18,18.6h0l0,0a8.82,8.82,0,0,1,.42,2.28,5.69,5.69,0,0,1-.27,2,4.44,4.44,0,0,1-.75,1.38h0a5.34,5.34,0,0,1-2.09-2.7,7.56,7.56,0,0,1-.36-1.17s0,0,0,0h0a7.71,7.71,0,0,1,1.48,1.2.36.36,0,0,0,.63-.22A5.75,5.75,0,0,1,60.22,45.87ZM57.69,45a.35.35,0,0,0,.2-.34,5.74,5.74,0,0,1,.6-2.84h0A8.88,8.88,0,0,1,59.2,44a5.49,5.49,0,0,1-.07,2,4.34,4.34,0,0,1-.59,1.44h0A5.45,5.45,0,0,1,56.14,45a8.71,8.71,0,0,1-.48-1.13,0,0,0,0,1,0,0,0,0,0,0,1,0,0,7.87,7.87,0,0,1,1.59,1,.37.37,0,0,0,.4.06Zm-1.81-3.73h0a.36.36,0,0,0,.18-.37A5.69,5.69,0,0,1,56.32,38a0,0,0,0,1,0,0h0a8.48,8.48,0,0,1,.92,2.14,5.94,5.94,0,0,1,.18,2A4.25,4.25,0,0,1,57,43.65a0,0,0,0,1,0,0h0a5.3,5.3,0,0,1-2.71-2.21,7.35,7.35,0,0,1-.59-1.11v0h0a5.47,5.47,0,0,1,1.74.9A.38.38,0,0,0,55.88,41.25Zm-2.7-3.46a.36.36,0,0,0,.55-.41,6.29,6.29,0,0,1-.18-2.85s0,0,0,0h0a9,9,0,0,1,1.22,1.93,5.41,5.41,0,0,1,.5,2A4.28,4.28,0,0,1,55.14,40l0,0h0a5.4,5.4,0,0,1-3-1.74,7.63,7.63,0,0,1-.83-1v0h0A4.06,4.06,0,0,1,53.18,37.79Zm-2.7-3.09a.36.36,0,0,0,.4-.1.35.35,0,0,0,0-.4,5.76,5.76,0,0,1-.67-2.82l0,0s0,0,0,0a8.51,8.51,0,0,1,1.51,1.71A6,6,0,0,1,52.62,35a4.47,4.47,0,0,1,.1,1.58,0,0,0,0,1,0,0h-.06a5.26,5.26,0,0,1-3-1.21,9.83,9.83,0,0,1-1-.93,0,0,0,0,1,0,0l0,0h.14A5.3,5.3,0,0,1,50.48,34.7Zm-1.07-2.81a5,5,0,0,1,.31,1.76s0,0,0,0H49.5a8.53,8.53,0,0,1-4.12-1.61s0,0,0,0l0,0a4.79,4.79,0,0,1,1.84,0,.38.38,0,0,0,.39-.16.36.36,0,0,0,0-.42,7.77,7.77,0,0,1-1.15-2.16,0,0,0,0,1,0,0h0A4.44,4.44,0,0,1,49.41,31.89ZM21.75,27.74a6.48,6.48,0,0,1,.94-.4,21.14,21.14,0,0,1,2.13-.61,5.73,5.73,0,0,0,1.64-.64.14.14,0,0,0,.06-.15.15.15,0,0,0-.12-.12l-5-.72,5-.73a.14.14,0,0,0,0-.28,8.41,8.41,0,0,1-1.92-.59,7.47,7.47,0,0,1-.75-.38,5.7,5.7,0,0,0-2-.73,8.29,8.29,0,0,1,1,0,19.94,19.94,0,0,1,2.2.26,5.36,5.36,0,0,0,1.76,0,.14.14,0,0,0,.12-.11.15.15,0,0,0-.07-.15l-4.32-2.57,4.88,1.22a.12.12,0,0,0,.16-.08.14.14,0,0,0-.05-.18,8.06,8.06,0,0,1-1.55-1.27c-.21-.23-.38-.44-.55-.65a5.61,5.61,0,0,0-1.53-1.42,6.61,6.61,0,0,1,.94.38,18.42,18.42,0,0,1,1.93,1.08,5.92,5.92,0,0,0,1.61.71.17.17,0,0,0,.16-.07.14.14,0,0,0,0-.16l-3-4,4,3a.14.14,0,0,0,.19,0,.15.15,0,0,0,0-.19,8.49,8.49,0,0,1-.94-1.77c-.11-.29-.18-.55-.26-.8a5.63,5.63,0,0,0-.87-1.91,8.09,8.09,0,0,1,.73.72,20.23,20.23,0,0,1,1.37,1.74,5.57,5.57,0,0,0,1.22,1.27.15.15,0,0,0,.16,0,.17.17,0,0,0,.06-.16l-1.25-4.85,2.59,4.3a.14.14,0,0,0,.18.06.14.14,0,0,0,.08-.17,8.64,8.64,0,0,1-.19-2c0-.31,0-.59.07-.85a5.58,5.58,0,0,0-.07-2.09,8.85,8.85,0,0,1,.4.94,19.27,19.27,0,0,1,.59,2.13,6.09,6.09,0,0,0,.64,1.64.14.14,0,0,0,.15.06.15.15,0,0,0,.12-.12l.69-4.94.73,4.94a.15.15,0,0,0,.14.13h0a.15.15,0,0,0,.14-.13,8.52,8.52,0,0,1,.58-1.91c.13-.29.26-.53.39-.76a5.63,5.63,0,0,0,.72-2,6.68,6.68,0,0,1,0,1c-.06.92-.19,1.77-.26,2.2a5.29,5.29,0,0,0,0,1.75.14.14,0,0,0,.11.12.13.13,0,0,0,.15-.07l2.57-4.3L39.2,17.27a.15.15,0,0,0,.08.17.16.16,0,0,0,.18-.06,7.73,7.73,0,0,1,1.27-1.55c.23-.21.44-.38.65-.55a5.52,5.52,0,0,0,1.42-1.54,6.26,6.26,0,0,1-.38.95,18.42,18.42,0,0,1-1.08,1.93,5.38,5.38,0,0,0-.7,1.61.15.15,0,0,0,.06.16.14.14,0,0,0,.16,0l4-3-3,4a.14.14,0,0,0,.2.2,8.82,8.82,0,0,1,1.77-.94,8.34,8.34,0,0,1,.81-.26,5.51,5.51,0,0,0,1.9-.87,7.9,7.9,0,0,1-.71.72,19.35,19.35,0,0,1-1.74,1.37,5.8,5.8,0,0,0-1.27,1.22.14.14,0,0,0,0,.17.14.14,0,0,0,.15.06l4.86-1.24-4.3,2.58a.14.14,0,0,0-.06.18.14.14,0,0,0,.16.08,8.78,8.78,0,0,1,2-.19c.31,0,.58,0,.84.07a5.4,5.4,0,0,0,2.09-.08,5.89,5.89,0,0,1-.93.4,18.23,18.23,0,0,1-2.13.6,5.58,5.58,0,0,0-1.64.64.15.15,0,0,0-.07.15.16.16,0,0,0,.12.12l5,.71-5,.74a.14.14,0,0,0,0,.28,9,9,0,0,1,1.92.59c.28.13.52.26.75.39a5.62,5.62,0,0,0,2,.73,8.46,8.46,0,0,1-1,0c-.92-.06-1.77-.19-2.2-.26l-.12,0A5.83,5.83,0,0,0,42.8,27a.33.33,0,0,0,0-.1.39.39,0,0,0-.25-.28,11,11,0,0,0-2.62-.59h-.59a5.23,5.23,0,0,0-1.13.09v0a.45.45,0,0,0,0-.16v0a.41.41,0,0,0-.3-.21l-.23,0h-.47a9.27,9.27,0,0,0-2.56.11l-.62.16h0l-.1,0,0,0-.14,0h0l-.29.11h0v0h0a.37.37,0,0,0-.1-.33h0s0,0,0,0h0a.41.41,0,0,0-.28-.09,10,10,0,0,0-3.17.74,6.16,6.16,0,0,0-.85.44.59.59,0,0,0,0-.11h0a.38.38,0,0,0-.14-.33h0l0,0h-.05a.39.39,0,0,0-.26,0,9.83,9.83,0,0,0-3,1.35l-.07.05c-.22,0-.46,0-.7,0s-.79-.06-.85-.06A5.4,5.4,0,0,0,21.75,27.74Zm1.91,1a0,0,0,0,1,0,0s0,0,0,0a5.68,5.68,0,0,1-.94,2.74.36.36,0,0,0,.37.55A8.09,8.09,0,0,1,25,32l0,0a0,0,0,0,1,0,0,7.08,7.08,0,0,1-4.07,1.69h-.18l0,0C20.69,32.85,20.89,30.75,23.66,28.75ZM17.79,35a5.66,5.66,0,0,1,.81-1.87,8.55,8.55,0,0,1,1.55-1.74h0s0,0,0,0a5.69,5.69,0,0,1-.67,2.82.35.35,0,0,0,.05.4.35.35,0,0,0,.39.1,7.46,7.46,0,0,1,1.81-.32h0v0a13.09,13.09,0,0,1-1.07.94,5.21,5.21,0,0,1-2.85,1.22h-.13s0,0,0,0A4.22,4.22,0,0,1,17.79,35Zm-.95-.49h0a0,0,0,0,1,0,0,5.7,5.7,0,0,1-.21,2.89.35.35,0,0,0,.13.4.36.36,0,0,0,.42,0,4.13,4.13,0,0,1,1.8-.63h0a0,0,0,0,1,0,0A6.47,6.47,0,0,1,15.29,40h0C15,39.19,14.65,37.11,16.84,34.48Zm-3.77,5.64a8.38,8.38,0,0,1,1-2.1s0,0,0,0l0,0a5.56,5.56,0,0,1,.14,2.9.35.35,0,0,0,.18.38.36.36,0,0,0,.43-.06,3.46,3.46,0,0,1,1.76-.86h0a0,0,0,0,1,0,0A8.28,8.28,0,0,1,16,41.61a5.29,5.29,0,0,1-2.75,2.06h0l0,0a4.48,4.48,0,0,1-.36-1.51A5.74,5.74,0,0,1,13.07,40.12ZM11,44a8.14,8.14,0,0,1,.68-2.22h0a5.68,5.68,0,0,1,.58,2.85.35.35,0,0,0,.2.34.37.37,0,0,0,.39,0,7.46,7.46,0,0,1,1.69-1.07h0a0,0,0,0,1,0,0,5.12,5.12,0,0,1-.39,1,5.48,5.48,0,0,1-2.57,2.55h0a4.65,4.65,0,0,1-.58-1.44A5.79,5.79,0,0,1,11,44ZM9.55,48.12a8.08,8.08,0,0,1,.39-2.28,0,0,0,0,1,0,0h0a5.69,5.69,0,0,1,.93,2.75.36.36,0,0,0,.64.2,6.6,6.6,0,0,1,1.54-1.27h0v0a6.35,6.35,0,0,1-.25,1.13,5.18,5.18,0,0,1-2.24,2.84h0a4.42,4.42,0,0,1-.76-1.36A5.53,5.53,0,0,1,9.55,48.12Zm-.86,2a0,0,0,0,1,0,0s0,0,0,0A5.8,5.8,0,0,1,10,52.67a.37.37,0,0,0,.28.28.36.36,0,0,0,.37-.15A7.27,7.27,0,0,1,12,51.38s0,0,0,0l0,0a6.15,6.15,0,0,1-.16,1.13,5.69,5.69,0,0,1-1.78,3.06h0a4.41,4.41,0,0,1-.91-1.25,5.58,5.58,0,0,1-.55-2A8.32,8.32,0,0,1,8.69,50.07Zm-.64,4.24,0,0h0a5.64,5.64,0,0,1,1.38,2.55.37.37,0,0,0,.68.07,5.12,5.12,0,0,1,1.12-1.48h0l0,0a8.83,8.83,0,0,1-.11,1.28,5.15,5.15,0,0,1-1.5,3h0a4.27,4.27,0,0,1-1-1.21,5.69,5.69,0,0,1-.64-1.94A8.47,8.47,0,0,1,8.05,54.31ZM7.7,58.77a0,0,0,0,1,0,0h0A3.44,3.44,0,0,1,8,59a5.8,5.8,0,0,1,1.28,2.2.36.36,0,0,0,.37.25.38.38,0,0,0,.33-.3h0a3.13,3.13,0,0,1,.92-1.61s0,0,0,0l0,0a6.59,6.59,0,0,1,0,2.1,4.36,4.36,0,0,1-1.24,2.45h0C9,63.65,7.49,62.17,7.7,58.77Zm-.17,4.32h0a2.17,2.17,0,0,1,.29.24,5.75,5.75,0,0,1,1.5,2,.36.36,0,0,0,.33.21h0a.37.37,0,0,0,.33-.22,7.35,7.35,0,0,1,1-1.71s0,0,0,0l0,0a5.53,5.53,0,0,1-1,4.53h0c-.7-.41-2.37-1.73-2.51-5.11C7.51,63.11,7.52,63.1,7.53,63.09Zm.22,4.51a0,0,0,0,1,0,0h0a5.79,5.79,0,0,1,2.17,2,.35.35,0,0,0,.37.15.34.34,0,0,0,.28-.28h0a7.27,7.27,0,0,1,.74-1.88,0,0,0,0,1,0,0s0,0,0,0a5.2,5.2,0,0,1,.39,1.15,4.83,4.83,0,0,1-.6,3.54h0a4.35,4.35,0,0,1-1.35-.82,5.86,5.86,0,0,1-1.26-1.62A8.42,8.42,0,0,1,7.75,67.6Zm1,4.17s0,0,0,0h0l.34.16a6,6,0,0,1,2,1.63.36.36,0,0,0,.37.13.38.38,0,0,0,.27-.3,7.21,7.21,0,0,1,.55-1.86l0,0h0s0,0,0,0a5.62,5.62,0,0,1,.17,4.61h0C11.71,75.9,9.76,75,8.77,71.77ZM11.29,78a9.12,9.12,0,0,1-1.19-2,0,0,0,0,1,0,0h0a2.53,2.53,0,0,1,.36.12,5.92,5.92,0,0,1,2.15,1.39.37.37,0,0,0,.39.08.35.35,0,0,0,.22-.32,7.51,7.51,0,0,1,.33-1.89,0,0,0,0,1,0,0h0a8,8,0,0,1,.52,1.11,5.24,5.24,0,0,1,.18,3.43,0,0,0,0,1,0,0h0a4.59,4.59,0,0,1-1.48-.56A5.72,5.72,0,0,1,11.29,78Zm.61,2v0s0,0,0,0a5.89,5.89,0,0,1,2.66,1.21.35.35,0,0,0,.58-.32,6.72,6.72,0,0,1,.1-1.87,0,0,0,0,1,0,0s0,0,0,0A8.51,8.51,0,0,1,16,80a5.53,5.53,0,0,1,.61,3.31s0,0,0,0h0A4.26,4.26,0,0,1,15,83a6,6,0,0,1-1.7-1.17A8.75,8.75,0,0,1,11.9,79.94Zm8.31,7.23a6.75,6.75,0,0,1-.44-1.83s0,0,0,0h0A5.34,5.34,0,0,1,22,89.44a0,0,0,0,1,0,0,3.35,3.35,0,0,1-.57,0,4.79,4.79,0,0,1-.85-.08,7.92,7.92,0,0,1-3.7-2.12s0,0,0,0h0a5.83,5.83,0,0,1,2.9.38.34.34,0,0,0,.39-.08A.37.37,0,0,0,20.21,87.17Zm-3.28-2.6a.36.36,0,0,0,.41,0,.38.38,0,0,0,.14-.38,6.16,6.16,0,0,1-.12-1.85s0,0,0,0,0,0,0,0a6.57,6.57,0,0,1,1.72,4.23s0,0,0,0h-.17a4.57,4.57,0,0,1-1.39-.23,5.79,5.79,0,0,1-1.8-1,8.59,8.59,0,0,1-1.6-1.68,0,0,0,0,1,0,0s0,0,0,0A5.88,5.88,0,0,1,16.93,84.57Zm10.35-8.7-.3,0c-.37-.06-.64-.18-.69-.31s-.12-.27.13-.6a2.27,2.27,0,0,1,1.74-.79h.05a1.36,1.36,0,0,1,.33.06l-.37.33A3,3,0,0,0,27.28,75.87Zm2,1.24A2.49,2.49,0,0,1,29,77c-.61-.2-.66-.53-.67-.66,0-.33.14-.61.61-1.06.73-.7,1.31-.92,1.8-.67a.72.72,0,0,1,.37.34.33.33,0,0,1,0,.17l-.36.24A3.31,3.31,0,0,0,29.33,77.11Zm2.49,1A2,2,0,0,1,30.56,78a.48.48,0,0,1-.21-.39c-.06-.53.61-1.09,1-1.37,1-.66,1.45-.89,1.93-.48a.52.52,0,0,1,.21.34,1.15,1.15,0,0,1-.43.59A3.44,3.44,0,0,0,31.82,78.14Zm3.65-.62c0,.27-.38.58-.55.68h0l0,0h0a2.57,2.57,0,0,1-1.63.58.78.78,0,0,1-.43-.26,3.2,3.2,0,0,1,1.4-1.27c.7-.41,1-.17,1.05-.15C35.49,77.34,35.48,77.48,35.47,77.52ZM43.94,75a1.27,1.27,0,0,1-.88.29,10.53,10.53,0,0,0-3.46-3.09.54.54,0,0,0-.72.24.55.55,0,0,0,.24.73,9.6,9.6,0,0,1,3.07,2.75,1.18,1.18,0,0,1-1.28.73,4.75,4.75,0,0,0-.8-1.18,11.59,11.59,0,0,0-1.58-1.34.54.54,0,0,0-.75.13.53.53,0,0,0,.13.75,11.32,11.32,0,0,1,1.38,1.16,4.43,4.43,0,0,1,.65.93,1.58,1.58,0,0,1-.3.42,1,1,0,0,1-.89.27,6.65,6.65,0,0,0-1.1-1.68.54.54,0,0,0-.76,0,.55.55,0,0,0,0,.76,5.75,5.75,0,0,1,.87,1.27,2.68,2.68,0,0,1-.38.19,2,2,0,0,1-1.09.11,1.69,1.69,0,0,0,.31-.78A1.54,1.54,0,0,0,36,76.36,1.61,1.61,0,0,0,34.57,76,1.51,1.51,0,0,0,34,75a1.82,1.82,0,0,0-1.83-.38l-.06,0a1.67,1.67,0,0,0-.9-.94,2.06,2.06,0,0,0-1.6-.1,2.37,2.37,0,0,0-1.31-.52,3.32,3.32,0,0,0-2.47.91c-3.46,1.85-7.93,3.86-9.71,4.65a34.77,34.77,0,0,1-2.41-5.75c-.19-.57-.36-1.15-.52-1.74,5.08-.58,9.16-1.17,12.14-1.77s5.09-1.24,6.09-1.92h0a4.49,4.49,0,0,1,3.16-1.15c.37,0,.69.07,1,.12a2.78,2.78,0,0,0-.82.42c-.47.33-.76.56-1,.77a7.93,7.93,0,0,1-.8.6,7.24,7.24,0,0,1-.84.44c-.69.34-1.23.61-1.4,1.06h0a1.41,1.41,0,0,0,.23,1.41,2.12,2.12,0,0,0,2.06.64A5.82,5.82,0,0,0,35.39,71c.25-.14.47-.29.66-.42a3,3,0,0,1,.77-.42h0a3.36,3.36,0,0,1,2.14.21,12.1,12.1,0,0,1,2.12,1.16,13.83,13.83,0,0,1,3.12,2.87A1,1,0,0,1,43.94,75Zm2.1-.46h0A6.11,6.11,0,0,1,45,73.62h0l0,0-.09-.11a15.22,15.22,0,0,0-3.17-2.85c-1.1-.71-3.15-2-5.12-1.51a3.5,3.5,0,0,0-1.12.57c-.19.13-.39.26-.61.39a4.92,4.92,0,0,1-1.94.58c-.59,0-1,0-1.12-.19s-.14-.28-.11-.37a5.82,5.82,0,0,1,.88-.5,7.74,7.74,0,0,0,.95-.51,7.36,7.36,0,0,0,.89-.66c.24-.2.52-.42,1-.73a3.82,3.82,0,0,1,2.28-.47h.86A9.1,9.1,0,0,1,42,68l1.43.51h0s2,.63,4.69,1.27a56.35,56.35,0,0,0,9,1.46c-.15.54-.3,1.08-.47,1.6a34,34,0,0,1-2.53,5.94A41.29,41.29,0,0,1,46,74.56ZM53.53,87.3a7.75,7.75,0,0,1-3.69,2.12,4.81,4.81,0,0,1-.86.08,3.5,3.5,0,0,1-.56,0s0,0,0,0a4.49,4.49,0,0,1,1.24-3.2,8.83,8.83,0,0,1,.93-.9h0s0,0,0,0a8,8,0,0,1-.46,1.8.35.35,0,0,0,.07.39.34.34,0,0,0,.39.08,5.83,5.83,0,0,1,2.9-.38l0,0A0,0,0,0,1,53.53,87.3Zm2.73-3.62a8.9,8.9,0,0,1-1.6,1.68,5.73,5.73,0,0,1-1.81,1,4.47,4.47,0,0,1-1.38.23h-.18a0,0,0,0,1,0,0,5.36,5.36,0,0,1,.95-3.27,8.59,8.59,0,0,1,.75-1s0,0,0,0l0,0a7.76,7.76,0,0,1-.11,1.89.36.36,0,0,0,.55.37,5.85,5.85,0,0,1,2.77-.93h0ZM58.49,80a8.36,8.36,0,0,1-1.41,1.83A5.84,5.84,0,0,1,55.39,83a4.5,4.5,0,0,1-1.53.38h0l0,0A5.34,5.34,0,0,1,54.44,80a7.29,7.29,0,0,1,.64-1.06s0,0,0,0a0,0,0,0,1,0,0,7.34,7.34,0,0,1,.1,1.89.37.37,0,0,0,.19.35.35.35,0,0,0,.39,0,5.89,5.89,0,0,1,2.66-1.21h0Zm1.8-4.09a9,9,0,0,1-1.21,2,6,6,0,0,1-1.55,1.35,4.25,4.25,0,0,1-1.47.55h0s0,0,0,0a5.31,5.31,0,0,1,.2-3.43,7.46,7.46,0,0,1,.49-1.08h0s0,0,0,0a8.11,8.11,0,0,1,.33,1.88.37.37,0,0,0,.24.32.36.36,0,0,0,.39-.1h0a5.42,5.42,0,0,1,2.13-1.45l.39-.11s0,0,0,0A0,0,0,0,1,60.29,75.86Zm1.29-4.11a8.15,8.15,0,0,1-1,2.1,5.72,5.72,0,0,1-1.4,1.49,4.32,4.32,0,0,1-1.41.7h0a5.69,5.69,0,0,1-.14-3.46,7.58,7.58,0,0,1,.38-1.2l0,0h0a0,0,0,0,1,0,0,7.94,7.94,0,0,1,.52,1.92.36.36,0,0,0,.64.18,5.9,5.9,0,0,1,2.34-1.75h0Zm.14-2.13a5.66,5.66,0,0,1-1.2,1.65,4.44,4.44,0,0,1-1.31.87h0s0,0,0,0a5.59,5.59,0,0,1-.59-3.47,8.49,8.49,0,0,1,.24-1.22l0,0s0,0,0,0a8.4,8.4,0,0,1,.76,1.89.37.37,0,0,0,.29.27.35.35,0,0,0,.36-.17,5.8,5.8,0,0,1,2.11-2h0a0,0,0,0,1,0,0A8.24,8.24,0,0,1,61.72,69.62Zm.64-4.29a5.57,5.57,0,0,1-1,1.77,4.54,4.54,0,0,1-1.2,1h0a5.22,5.22,0,0,1-1-3.31,7.69,7.69,0,0,1,.13-1.25h0s0,0,0,0a6.22,6.22,0,0,1,.93,1.71.37.37,0,0,0,.32.25.36.36,0,0,0,.35-.21A5.66,5.66,0,0,1,62.78,63h0a0,0,0,0,1,0,0A8.7,8.7,0,0,1,62.36,65.33Z" style="fill:#231f20"/><g id="_Group_8" data-name="&lt;Group&gt;"><path id="_Path_19" data-name="&lt;Path&gt;" d="M53.52,87.26a5.86,5.86,0,0,0-2.91.38.34.34,0,0,1-.39-.08.35.35,0,0,1-.07-.39,8,8,0,0,0,.46-1.8s0,0,0,0h0a8.83,8.83,0,0,0-.93.9,4.49,4.49,0,0,0-1.24,3.2s0,0,0,0a3.5,3.5,0,0,0,.56,0,4.81,4.81,0,0,0,.86-.08,7.75,7.75,0,0,0,3.69-2.12,0,0,0,0,0,0,0Z" style="fill:#2e9a4a"/><path id="_Path_20" data-name="&lt;Path&gt;" d="M19.81,85.32h0s0,0,0,0a6.75,6.75,0,0,0,.44,1.83.37.37,0,0,1-.08.39.34.34,0,0,1-.39.08,5.83,5.83,0,0,0-2.9-.38h0s0,0,0,0a7.92,7.92,0,0,0,3.7,2.12,4.79,4.79,0,0,0,.85.08,3.35,3.35,0,0,0,.57,0,0,0,0,0,0,0,0A5.34,5.34,0,0,0,19.81,85.32Z" style="fill:#2e9a4a"/><path id="_Path_21" data-name="&lt;Path&gt;" d="M56.23,83.64a5.85,5.85,0,0,0-2.77.93.36.36,0,0,1-.55-.37A7.76,7.76,0,0,0,53,82.31l0,0s0,0,0,0a8.59,8.59,0,0,0-.75,1,5.36,5.36,0,0,0-.95,3.27,0,0,0,0,0,0,0h.18a4.47,4.47,0,0,0,1.38-.23,5.73,5.73,0,0,0,1.81-1,8.9,8.9,0,0,0,1.6-1.68v0Z" style="fill:#2e9a4a"/><path id="_Path_22" data-name="&lt;Path&gt;" d="M58.46,79.91a5.89,5.89,0,0,0-2.66,1.21.35.35,0,0,1-.39,0,.37.37,0,0,1-.19-.35,7.34,7.34,0,0,0-.1-1.89,0,0,0,0,0,0,0s0,0,0,0A7.29,7.29,0,0,0,54.44,80a5.34,5.34,0,0,0-.61,3.34l0,0h0A4.5,4.5,0,0,0,55.39,83a5.84,5.84,0,0,0,1.69-1.17A8.36,8.36,0,0,0,58.49,80v0Z" style="fill:#2e9a4a"/><path id="_Path_23" data-name="&lt;Path&gt;" d="M60.26,75.82l-.39.11a5.42,5.42,0,0,0-2.13,1.45h0a.36.36,0,0,1-.39.1.37.37,0,0,1-.24-.32,8.11,8.11,0,0,0-.33-1.88s0,0,0,0h0a7.46,7.46,0,0,0-.49,1.08,5.31,5.31,0,0,0-.2,3.43s0,0,0,0h0a4.25,4.25,0,0,0,1.47-.55,6,6,0,0,0,1.55-1.35,9,9,0,0,0,1.21-2,0,0,0,0,0,0,0S60.27,75.82,60.26,75.82Z" style="fill:#2e9a4a"/><path id="_Path_24" data-name="&lt;Path&gt;" d="M61.55,71.72a5.9,5.9,0,0,0-2.34,1.75.36.36,0,0,1-.64-.18,7.94,7.94,0,0,0-.52-1.92,0,0,0,0,0,0,0h0l0,0a7.58,7.58,0,0,0-.38,1.2A5.69,5.69,0,0,0,57.76,76h0a4.32,4.32,0,0,0,1.41-.7,5.72,5.72,0,0,0,1.4-1.49,8.15,8.15,0,0,0,1-2.1v0Z" style="fill:#2e9a4a"/><path id="_Path_25" data-name="&lt;Path&gt;" d="M62.4,67.39a5.8,5.8,0,0,0-2.11,2,.35.35,0,0,1-.36.17.37.37,0,0,1-.29-.27,8.4,8.4,0,0,0-.76-1.89s0,0,0,0l0,0a8.49,8.49,0,0,0-.24,1.22,5.59,5.59,0,0,0,.59,3.47,0,0,0,0,0,0,0h0a4.44,4.44,0,0,0,1.31-.87,5.66,5.66,0,0,0,1.2-1.65,8.24,8.24,0,0,0,.71-2.2,0,0,0,0,0,0,0Z" style="fill:#2e9a4a"/><path id="_Path_26" data-name="&lt;Path&gt;" d="M60.92,65.27a.36.36,0,0,1-.35.21.37.37,0,0,1-.32-.25,6.22,6.22,0,0,0-.93-1.71s0,0,0,0h0a7.69,7.69,0,0,0-.13,1.25,5.22,5.22,0,0,0,1,3.31h0a4.54,4.54,0,0,0,1.2-1,5.57,5.57,0,0,0,1-1.77,8.7,8.7,0,0,0,.46-2.27,0,0,0,0,0,0,0h0A5.66,5.66,0,0,0,60.92,65.27Z" style="fill:#2e9a4a"/><path id="_Path_27" data-name="&lt;Path&gt;" d="M60.77,61.34a.37.37,0,0,1-.35-.2,7.13,7.13,0,0,0-1.06-1.54h0l0,0A6.47,6.47,0,0,0,60.57,64h0a4.23,4.23,0,0,0,1.1-1.11A5.52,5.52,0,0,0,62.52,61a8,8,0,0,0,.23-2.3s0,0,0,0a0,0,0,0,0,0,0,5.77,5.77,0,0,0-1.63,2.4A.35.35,0,0,1,60.77,61.34Z" style="fill:#2e9a4a"/><path id="_Path_28" data-name="&lt;Path&gt;" d="M60.56,57.12A.38.38,0,0,1,60.2,57,7.35,7.35,0,0,0,59,55.55h0l0,0c.11,1.16.46,3.25,1.63,4.22h0a4.41,4.41,0,0,0,1-1.23,5.48,5.48,0,0,0,.64-1.94,8.47,8.47,0,0,0,0-2.31,0,0,0,0,0,0,0h0a5.74,5.74,0,0,0-1.38,2.55A.36.36,0,0,1,60.56,57.12Z" style="fill:#2e9a4a"/><path id="_Path_29" data-name="&lt;Path&gt;" d="M60,53a.35.35,0,0,1-.37-.15,8,8,0,0,0-1.29-1.38h0l0,0a9.88,9.88,0,0,0,.22,1.23,5.61,5.61,0,0,0,1.66,2.93h0a4.57,4.57,0,0,0,.92-1.26,5.7,5.7,0,0,0,.55-2,8.41,8.41,0,0,0-.11-2.32v0h0a5.74,5.74,0,0,0-1.26,2.62A.37.37,0,0,1,60,53Z" style="fill:#2e9a4a"/><path id="_Path_30" data-name="&lt;Path&gt;" d="M59.09,49a.36.36,0,0,1-.39-.1,7.71,7.71,0,0,0-1.48-1.2h0s0,0,0,0a7.56,7.56,0,0,0,.36,1.17,5.34,5.34,0,0,0,2.09,2.7h0a4.44,4.44,0,0,0,.75-1.38,5.69,5.69,0,0,0,.27-2,8.82,8.82,0,0,0-.42-2.28l0,0h0a5.75,5.75,0,0,0-.89,2.76A.36.36,0,0,1,59.09,49Z" style="fill:#2e9a4a"/><path id="_Path_31" data-name="&lt;Path&gt;" d="M57.29,44.92a7.87,7.87,0,0,0-1.59-1,0,0,0,0,0,0,0,0,0,0,0,0,0,0A8.71,8.71,0,0,0,56.14,45a5.45,5.45,0,0,0,2.36,2.47h0a4.34,4.34,0,0,0,.59-1.44,5.49,5.49,0,0,0,.07-2,8.88,8.88,0,0,0-.66-2.23h0a5.74,5.74,0,0,0-.6,2.84.35.35,0,0,1-.2.34h0A.37.37,0,0,1,57.29,44.92Z" style="fill:#2e9a4a"/><path id="_Path_32" data-name="&lt;Path&gt;" d="M53.7,40.32v0a7.35,7.35,0,0,0,.59,1.11A5.3,5.3,0,0,0,57,43.67h0a0,0,0,0,0,0,0,4.25,4.25,0,0,0,.43-1.49,5.94,5.94,0,0,0-.18-2A8.48,8.48,0,0,0,56.36,38h0a0,0,0,0,0,0,0,5.69,5.69,0,0,0-.26,2.88.36.36,0,0,1-.18.37h0a.38.38,0,0,1-.41,0,5.47,5.47,0,0,0-1.74-.9Z" style="fill:#2e9a4a"/><path id="_Path_33" data-name="&lt;Path&gt;" d="M51.32,37.17v0a7.63,7.63,0,0,0,.83,1,5.4,5.4,0,0,0,3,1.74h0l0,0a4.28,4.28,0,0,0,.17-1.55,5.41,5.41,0,0,0-.5-2,9,9,0,0,0-1.22-1.93h0s0,0,0,0a6.29,6.29,0,0,0,.18,2.85.36.36,0,0,1-.55.41,4.06,4.06,0,0,0-1.83-.63Z" style="fill:#2e9a4a"/><path id="_Path_34" data-name="&lt;Path&gt;" d="M50.88,34.6a.36.36,0,0,1-.4.1,5.3,5.3,0,0,0-1.76-.33h-.14l0,0a0,0,0,0,0,0,0,9.83,9.83,0,0,0,1,.93,5.26,5.26,0,0,0,3,1.21h.06a0,0,0,0,0,0,0,4.47,4.47,0,0,0-.1-1.58,6,6,0,0,0-.81-1.88,8.51,8.51,0,0,0-1.51-1.71s0,0,0,0l0,0a5.76,5.76,0,0,0,.67,2.82A.35.35,0,0,1,50.88,34.6Z" style="fill:#2e9a4a"/><path id="_Path_35" data-name="&lt;Path&gt;" d="M18.93,86.57h.17s0,0,0,0a6.57,6.57,0,0,0-1.72-4.23s0,0,0,0,0,0,0,0a6.16,6.16,0,0,0,.12,1.85.38.38,0,0,1-.14.38.36.36,0,0,1-.41,0,6,6,0,0,0-2.77-.94,0,0,0,0,0,0,0,0,0,0,0,0,0,0,8.59,8.59,0,0,0,1.6,1.68,5.79,5.79,0,0,0,1.8,1A4.57,4.57,0,0,0,18.93,86.57Z" style="fill:#2e9a4a"/><path id="_Path_36" data-name="&lt;Path&gt;" d="M16.53,83.33h0s0,0,0,0A5.53,5.53,0,0,0,16,80a8.51,8.51,0,0,0-.64-1.08s0,0,0,0a0,0,0,0,0,0,0,6.72,6.72,0,0,0-.1,1.87.35.35,0,0,1-.58.32,5.89,5.89,0,0,0-2.66-1.21s0,0,0,0v0a8.75,8.75,0,0,0,1.41,1.84A6,6,0,0,0,15,83,4.26,4.26,0,0,0,16.53,83.33Z" style="fill:#2e9a4a"/><path id="_Path_37" data-name="&lt;Path&gt;" d="M14.31,79.87h0a0,0,0,0,0,0,0,5.24,5.24,0,0,0-.18-3.43,8,8,0,0,0-.52-1.11h0a0,0,0,0,0,0,0,7.51,7.51,0,0,0-.33,1.89.35.35,0,0,1-.22.32.37.37,0,0,1-.39-.08,5.92,5.92,0,0,0-2.15-1.39,2.53,2.53,0,0,0-.36-.12h0a0,0,0,0,0,0,0,9.12,9.12,0,0,0,1.19,2,5.72,5.72,0,0,0,1.54,1.35A4.59,4.59,0,0,0,14.31,79.87Z" style="fill:#2e9a4a"/><path id="_Path_38" data-name="&lt;Path&gt;" d="M12.5,76.12h0a5.62,5.62,0,0,0-.17-4.61s0,0,0,0h0l0,0a7.21,7.21,0,0,0-.55,1.86.38.38,0,0,1-.27.3.36.36,0,0,1-.37-.13,6,6,0,0,0-2-1.63l-.34-.16h0s0,0,0,0C9.76,75,11.71,75.9,12.5,76.12Z" style="fill:#2e9a4a"/><path id="_Path_39" data-name="&lt;Path&gt;" d="M9.8,71.39a4.35,4.35,0,0,0,1.35.82h0a4.83,4.83,0,0,0,.6-3.54,5.2,5.2,0,0,0-.39-1.15s0,0,0,0a0,0,0,0,0,0,0,7.27,7.27,0,0,0-.74,1.88h0a.34.34,0,0,1-.28.28.35.35,0,0,1-.37-.15,5.79,5.79,0,0,0-2.17-2h0a0,0,0,0,0,0,0,8.42,8.42,0,0,0,.79,2.17A5.86,5.86,0,0,0,9.8,71.39Z" style="fill:#2e9a4a"/><path id="_Path_40" data-name="&lt;Path&gt;" d="M10,68.23h0a5.53,5.53,0,0,0,1-4.53l0,0s0,0,0,0a7.35,7.35,0,0,0-1,1.71.37.37,0,0,1-.33.22h0a.36.36,0,0,1-.33-.21,5.9,5.9,0,0,0-1.5-2.06l-.29-.23h0s0,0,0,0C7.66,66.5,9.33,67.82,10,68.23Z" style="fill:#2e9a4a"/><path id="_Path_41" data-name="&lt;Path&gt;" d="M9.68,64.13h0A4.36,4.36,0,0,0,11,61.68a6.59,6.59,0,0,0,0-2.1l0,0s0,0,0,0A3.13,3.13,0,0,0,10,61.17h0a.38.38,0,0,1-.33.3.36.36,0,0,1-.37-.25A5.8,5.8,0,0,0,8,59a3.44,3.44,0,0,0-.27-.27h0a0,0,0,0,0,0,0C7.49,62.17,9,63.65,9.68,64.13Z" style="fill:#2e9a4a"/><path id="_Path_42" data-name="&lt;Path&gt;" d="M8.7,58.56a4.27,4.27,0,0,0,1,1.21h0a5.15,5.15,0,0,0,1.5-3,8.83,8.83,0,0,0,.11-1.28l0,0h0a5.12,5.12,0,0,0-1.12,1.48.37.37,0,0,1-.68-.07A5.64,5.64,0,0,0,8.1,54.3h0l0,0a8.47,8.47,0,0,0,0,2.31A5.69,5.69,0,0,0,8.7,58.56Z" style="fill:#2e9a4a"/><path id="_Path_43" data-name="&lt;Path&gt;" d="M9.14,54.34a4.41,4.41,0,0,0,.91,1.25h0a5.69,5.69,0,0,0,1.78-3.06A6.15,6.15,0,0,0,12,51.4l0,0s0,0,0,0a7.27,7.27,0,0,0-1.34,1.42.36.36,0,0,1-.37.15.37.37,0,0,1-.28-.28,5.8,5.8,0,0,0-1.26-2.61s0,0,0,0a0,0,0,0,0,0,0,8.32,8.32,0,0,0-.1,2.31A5.58,5.58,0,0,0,9.14,54.34Z" style="fill:#2e9a4a"/><path id="_Path_44" data-name="&lt;Path&gt;" d="M10.61,51.5h0a5.18,5.18,0,0,0,2.24-2.84,6.35,6.35,0,0,0,.25-1.13v0h0a6.6,6.6,0,0,0-1.54,1.27.36.36,0,0,1-.64-.2A5.69,5.69,0,0,0,10,45.83h0a0,0,0,0,0,0,0,8.08,8.08,0,0,0-.39,2.28,5.53,5.53,0,0,0,.3,2A4.42,4.42,0,0,0,10.61,51.5Z" style="fill:#2e9a4a"/><path id="_Path_45" data-name="&lt;Path&gt;" d="M11.66,47.49h0a5.48,5.48,0,0,0,2.57-2.55,5.12,5.12,0,0,0,.39-1,0,0,0,0,0,0,0h0a7.46,7.46,0,0,0-1.69,1.07.37.37,0,0,1-.39,0,.35.35,0,0,1-.2-.34,5.68,5.68,0,0,0-.58-2.85h0A8.14,8.14,0,0,0,11,44a5.79,5.79,0,0,0,0,2A4.65,4.65,0,0,0,11.66,47.49Z" style="fill:#2e9a4a"/><path id="_Path_46" data-name="&lt;Path&gt;" d="M13.17,43.65l0,0h0A5.29,5.29,0,0,0,16,41.61a8.28,8.28,0,0,0,.71-1.18,0,0,0,0,0,0,0h0a3.55,3.55,0,0,0-1.76.86.36.36,0,0,1-.43.06.35.35,0,0,1-.18-.38,5.56,5.56,0,0,0-.14-2.9l0,0s0,0,0,0a8.38,8.38,0,0,0-1,2.1,5.74,5.74,0,0,0-.26,2A4.48,4.48,0,0,0,13.17,43.65Z" style="fill:#2e9a4a"/><path id="_Path_47" data-name="&lt;Path&gt;" d="M15.28,40h0A6.47,6.47,0,0,0,19,37.2a0,0,0,0,0,0,0h0a4.13,4.13,0,0,0-1.8.63.36.36,0,0,1-.42,0,.35.35,0,0,1-.13-.4,5.7,5.7,0,0,0,.21-2.89,0,0,0,0,0,0,0h0C14.65,37.11,15,39.19,15.26,40Z" style="fill:#2e9a4a"/><path id="_Path_48" data-name="&lt;Path&gt;" d="M17.74,36.58h.13a5.21,5.21,0,0,0,2.85-1.22,13.09,13.09,0,0,0,1.07-.94v0h0A7.46,7.46,0,0,0,20,34.7a.35.35,0,0,1-.39-.1.35.35,0,0,1-.05-.4,5.69,5.69,0,0,0,.67-2.82s0,0,0,0h0A8.55,8.55,0,0,0,18.6,33.1,5.66,5.66,0,0,0,17.79,35a4.22,4.22,0,0,0-.07,1.58S17.73,36.58,17.74,36.58Z" style="fill:#2e9a4a"/><path id="_Path_49" data-name="&lt;Path&gt;" d="M25,32a8.09,8.09,0,0,0-1.86.11.36.36,0,0,1-.37-.55,5.68,5.68,0,0,0,.94-2.74s0,0,0,0a0,0,0,0,0,0,0c-2.77,2-3,4.1-2.93,4.91l0,0h.18A7.08,7.08,0,0,0,25,32a0,0,0,0,0,0,0Z" style="fill:#2e9a4a"/><path id="_Path_50" data-name="&lt;Path&gt;" d="M28.54,30.25a6.09,6.09,0,0,0-1-.21,8.78,8.78,0,0,0-.92-.06h0a.37.37,0,0,1-.34-.24.37.37,0,0,1,.1-.4A5.72,5.72,0,0,0,28,27.27s0,0,0,0h0c-3.23,1.09-3.93,3-4.08,3.73,0,0,0,0,0,0a4.45,4.45,0,0,0,1.28.17,6.7,6.7,0,0,0,2.18-.39,8.82,8.82,0,0,0,1.15-.49s0,0,0,0A0,0,0,0,0,28.54,30.25Z" style="fill:#2e9a4a"/><path id="_Path_51" data-name="&lt;Path&gt;" d="M32.41,29.2a7.85,7.85,0,0,0-1.8-.6.36.36,0,0,1-.09-.68,4.92,4.92,0,0,0,1.85-1.42,0,0,0,0,0,0,0h0a6.65,6.65,0,0,0-3.8,1.62,3.4,3.4,0,0,0-.76,1.11s0,0,0,0a5.11,5.11,0,0,0,2.15.44,7.65,7.65,0,0,0,1.25-.11,8.29,8.29,0,0,0,1.19-.3l0,0A0,0,0,0,0,32.41,29.2Z" style="fill:#2e9a4a"/><path id="_Path_52" data-name="&lt;Path&gt;" d="M34.93,28.11a.36.36,0,0,1,0-.68,6.17,6.17,0,0,0,2-1s0,0,0,0a0,0,0,0,0,0,0,6.59,6.59,0,0,0-4,.78,3.46,3.46,0,0,0-1,.92s0,0,0,0a6.06,6.06,0,0,0,3.61,1,7.71,7.71,0,0,0,.9,0s0,0,0,0a0,0,0,0,0,0,0A6.13,6.13,0,0,0,34.93,28.11Z" style="fill:#2e9a4a"/><path id="_Path_53" data-name="&lt;Path&gt;" d="M39.16,28.4A.39.39,0,0,1,39,28a.38.38,0,0,1,.31-.27,7,7,0,0,0,2.19-.58,0,0,0,0,0,0,0,0,0,0,0,0,0,0,6.58,6.58,0,0,0-4,0,3.28,3.28,0,0,0-1.16.7,0,0,0,0,0,0,0,5.68,5.68,0,0,0,4.24,1.93h0v0A7.08,7.08,0,0,0,39.16,28.4Z" style="fill:#2e9a4a"/><path id="_Path_54" data-name="&lt;Path&gt;" d="M49.69,33.67s0,0,0,0a5,5,0,0,0-.31-1.76,4.44,4.44,0,0,0-2.93-2.6h0a0,0,0,0,0,0,0,7.77,7.77,0,0,0,1.15,2.16.36.36,0,0,1,0,.42.38.38,0,0,1-.39.16,4.79,4.79,0,0,0-1.84,0l0,0s0,0,0,0a8.53,8.53,0,0,0,4.12,1.61Z" style="fill:#2e9a4a"/><path id="_Path_55" data-name="&lt;Path&gt;" d="M46.34,31.06v0a3.75,3.75,0,0,0-3.07-1.17,5.6,5.6,0,0,0-1.31.25l0,0s0,0,0,0a4.92,4.92,0,0,0,3,1.14h.18a4.11,4.11,0,0,0,1.16-.22Z" style="fill:#2e9a4a"/><path id="_Path_56" data-name="&lt;Path&gt;" d="M40.41,28.45a0,0,0,0,0,0,0,3.85,3.85,0,0,0,2.25.65A6.22,6.22,0,0,0,43.85,29a9.45,9.45,0,0,0,1.6-.46s0,0,0,0,0,0,0,0a5.59,5.59,0,0,0-1.8-.65,4.73,4.73,0,0,0-1.91.06,5.08,5.08,0,0,0-1.33.52Z" style="fill:#2e9a4a"/></g><g id="_Group_9" data-name="&lt;Group&gt;"><path id="_Path_57" data-name="&lt;Path&gt;" d="M37.23,95.68a1.81,1.81,0,0,0,.07-.52,1.84,1.84,0,0,0-.06-.47,4.8,4.8,0,0,0,2.68-1.35,2.21,2.21,0,0,0,.49-1.7,1.74,1.74,0,0,0-.8-1.32c-1.29-.85-3.75-.23-4.45,0-.69-.2-3.15-.82-4.44,0a1.74,1.74,0,0,0-.8,1.32,2.21,2.21,0,0,0,.49,1.7,4.76,4.76,0,0,0,2.69,1.35,2.42,2.42,0,0,0-.05.47,2.16,2.16,0,0,0,.06.51,8.67,8.67,0,0,1-4.91,2.39h0A3.55,3.55,0,0,0,29,99a9.66,9.66,0,0,0,4.65-2.37,1.7,1.7,0,0,0,.24.22c-.17.63-.85,2.25-3.64,3a6.33,6.33,0,0,0,1.68.48,5,5,0,0,0,2.87-3,3,3,0,0,0,.42,0,2.71,2.71,0,0,0,.41,0,4.94,4.94,0,0,0,2.87,3,6.33,6.33,0,0,0,1.68-.48c-2.78-.7-3.47-2.3-3.63-3l.24-.22A9.67,9.67,0,0,0,41.38,99a3.55,3.55,0,0,0,.75-.9A8.72,8.72,0,0,1,37.23,95.68Z" style="fill:#0b8bcb"/><g id="_Group_10" data-name="&lt;Group&gt;"><g id="_Group_11" data-name="&lt;Group&gt;"><path id="_Path_58" data-name="&lt;Path&gt;" d="M39.07,91.16a.75.75,0,0,1,.34.59,1.15,1.15,0,0,1-.27,1,2.85,2.85,0,0,1-1.29.79A1.88,1.88,0,0,0,38,92a2.3,2.3,0,0,0-.81-1.07A3.34,3.34,0,0,1,39.07,91.16Z" style="fill:#fff"/><path id="_Path_59" data-name="&lt;Path&gt;" d="M33.32,92.34c.38-1,1.79-1,1.84-1h0a3.3,3.3,0,0,1,.81.14,1.53,1.53,0,0,1,1,.89,1.27,1.27,0,0,1-.43,1.23A2.14,2.14,0,0,0,35.17,93a2.08,2.08,0,0,0-1.41.54A1.3,1.3,0,0,1,33.32,92.34Z" style="fill:#fff"/><path id="_Path_60" data-name="&lt;Path&gt;" d="M32.48,93.49a3,3,0,0,1-1.29-.79,1.15,1.15,0,0,1-.27-1,.75.75,0,0,1,.34-.59,2.37,2.37,0,0,1,1.27-.27l.65,0a2.35,2.35,0,0,0-.8,1.07A1.92,1.92,0,0,0,32.48,93.49Z" style="fill:#fff"/><circle id="_Path_61" data-name="&lt;Path&gt;" cx="35.17" cy="95.16" r="1.12" style="fill:#fff"/></g><path id="_Path_62" data-name="&lt;Path&gt;" d="M41.38,99a9.67,9.67,0,0,1-4.64-2.36l-.24.22c.16.65.85,2.25,3.63,3A5.41,5.41,0,0,0,41.38,99Z" style="fill:#fff"/><path id="_Path_63" data-name="&lt;Path&gt;" d="M33.6,96.59A9.66,9.66,0,0,1,29,99a5.41,5.41,0,0,0,1.25.81c2.79-.71,3.47-2.33,3.64-3A1.7,1.7,0,0,1,33.6,96.59Z" style="fill:#fff"/></g></g></g></g><g id="_Group_12" data-name="&lt;Group&gt;"><path id="_Compound_Path_2" data-name="&lt;Compound Path&gt;" d="M81,45.67h7.89c4.68,0,7.6,2.66,7.6,6.69v0c0,4.49-3.6,6.83-8,6.83h-4v6.43H81Zm7.6,10.4c2.66,0,4.32-1.48,4.32-3.57v-.06c0-2.34-1.69-3.57-4.32-3.57H84.47v7.2Z" style="fill:#0b8bcb"/><path id="_Compound_Path_3" data-name="&lt;Compound Path&gt;" d="M99.36,50.58h3.46V54a5.35,5.35,0,0,1,5.35-3.69V54H108c-3,0-5.15,2-5.15,6v5.74H99.36Z" style="fill:#0b8bcb"/><path id="_Compound_Path_4" data-name="&lt;Compound Path&gt;" d="M110.05,58.19v-.06c0-4.32,3.06-7.86,7.38-7.86,4.8,0,7.23,3.77,7.23,8.12,0,.31,0,.63-.06,1H113.51a4.21,4.21,0,0,0,4.34,3.83,5.49,5.49,0,0,0,4.09-1.8l2,1.8A7.64,7.64,0,0,1,117.8,66,7.53,7.53,0,0,1,110.05,58.19Zm11.18-1.12c-.23-2.23-1.55-4-3.83-4-2.12,0-3.6,1.63-3.92,4Z" style="fill:#0b8bcb"/><path id="_Compound_Path_5" data-name="&lt;Compound Path&gt;" d="M126.63,63.7l1.54-2.34a8.54,8.54,0,0,0,5,1.86c1.48,0,2.34-.63,2.34-1.63v-.06c0-1.17-1.6-1.57-3.37-2.11-2.23-.63-4.72-1.55-4.72-4.43v-.06c0-2.86,2.37-4.6,5.37-4.6A10.44,10.44,0,0,1,138.29,52l-1.37,2.46a8.72,8.72,0,0,0-4.26-1.43c-1.34,0-2.12.63-2.12,1.49v0c0,1.12,1.63,1.58,3.4,2.15,2.21.68,4.69,1.68,4.69,4.4v.06c0,3.17-2.46,4.74-5.6,4.74A10.57,10.57,0,0,1,126.63,63.7Z" style="fill:#0b8bcb"/><path id="_Compound_Path_6" data-name="&lt;Compound Path&gt;" d="M142,45h3.71v3.29H142Zm.14,5.6h3.46V65.67h-3.46Z" style="fill:#0b8bcb"/><path id="_Compound_Path_7" data-name="&lt;Compound Path&gt;" d="M149,58.16V58.1c0-5,3.4-7.83,7-7.83a6.16,6.16,0,0,1,5.14,2.66V44.81h3.46V65.67h-3.46V63.16A6,6,0,0,1,156,66C152.46,66,149,63.16,149,58.16Zm12.2,0V58.1a4.53,4.53,0,0,0-4.37-4.83c-2.38,0-4.35,1.83-4.35,4.83v.06c0,2.91,2,4.83,4.35,4.83A4.55,4.55,0,0,0,161.21,58.16Z" style="fill:#0b8bcb"/><path id="_Compound_Path_8" data-name="&lt;Compound Path&gt;" d="M167.84,58.19v-.06c0-4.32,3.06-7.86,7.37-7.86,4.8,0,7.23,3.77,7.23,8.12,0,.31,0,.63-.05,1H171.3a4.21,4.21,0,0,0,4.34,3.83,5.49,5.49,0,0,0,4.09-1.8l2,1.8A7.65,7.65,0,0,1,175.58,66,7.53,7.53,0,0,1,167.84,58.19ZM179,57.07c-.22-2.23-1.54-4-3.83-4-2.11,0-3.6,1.63-3.91,4Z" style="fill:#0b8bcb"/><path id="_Compound_Path_9" data-name="&lt;Compound Path&gt;" d="M185.64,50.58h3.46V52.9a5.47,5.47,0,0,1,4.72-2.63c3.4,0,5.37,2.29,5.37,5.77v9.63h-3.46V57.1c0-2.34-1.17-3.69-3.23-3.69s-3.4,1.4-3.4,3.75v8.51h-3.46Z" style="fill:#0b8bcb"/><path id="_Compound_Path_10" data-name="&lt;Compound Path&gt;" d="M202.25,58.21v-.05a7.79,7.79,0,0,1,7.86-7.89,7.63,7.63,0,0,1,6,2.6L214,55.19a5.07,5.07,0,0,0-3.89-1.89,4.55,4.55,0,0,0-4.37,4.8v.06A4.57,4.57,0,0,0,210.22,63a5.32,5.32,0,0,0,3.92-1.86l2.08,2.06A7.6,7.6,0,0,1,210.05,66,7.71,7.71,0,0,1,202.25,58.21Z" style="fill:#0b8bcb"/><path id="_Compound_Path_11" data-name="&lt;Compound Path&gt;" d="M219.17,45h3.71v3.29h-3.71Zm.14,5.6h3.46V65.67h-3.46Z" style="fill:#0b8bcb"/><path id="_Compound_Path_12" data-name="&lt;Compound Path&gt;" d="M226,61.33v-.06c0-3.26,2.54-4.86,6.23-4.86a12.63,12.63,0,0,1,4.06.63v-.37c0-2.14-1.32-3.28-3.75-3.28a10.52,10.52,0,0,0-4.31.94l-.92-2.72A12.94,12.94,0,0,1,233,50.38a6.73,6.73,0,0,1,5,1.69,6.25,6.25,0,0,1,1.63,4.66v8.94h-3.37V63.79a6.13,6.13,0,0,1-4.92,2.2C228.51,66,226,64.36,226,61.33Zm10.34-1.09v-1a9.36,9.36,0,0,0-3.42-.6c-2.23,0-3.55.94-3.55,2.51v.06c0,1.45,1.29,2.28,2.95,2.28C234.6,63.47,236.34,62.16,236.34,60.24Z" style="fill:#0b8bcb"/><path id="_Compound_Path_13" data-name="&lt;Compound Path&gt;" d="M251,58.16V58.1c0-5,3.4-7.83,7-7.83a6.16,6.16,0,0,1,5.14,2.66V44.81h3.46V65.67h-3.46V63.16A6,6,0,0,1,258,66C254.46,66,251,63.16,251,58.16Zm12.2,0V58.1a4.53,4.53,0,0,0-4.37-4.83c-2.38,0-4.35,1.83-4.35,4.83v.06c0,2.91,2,4.83,4.35,4.83A4.55,4.55,0,0,0,263.21,58.16Z" style="fill:#0b8bcb"/><path id="_Compound_Path_14" data-name="&lt;Compound Path&gt;" d="M269.84,58.19v-.06c0-4.32,3.06-7.86,7.37-7.86,4.8,0,7.23,3.77,7.23,8.12,0,.31,0,.63-.05,1H273.3a4.21,4.21,0,0,0,4.34,3.83,5.49,5.49,0,0,0,4.09-1.8l2,1.8A7.65,7.65,0,0,1,277.58,66,7.53,7.53,0,0,1,269.84,58.19ZM281,57.07c-.22-2.23-1.54-4-3.83-4-2.11,0-3.6,1.63-3.91,4Z" style="fill:#0b8bcb"/><path id="_Compound_Path_15" data-name="&lt;Compound Path&gt;" d="M296.13,44.81h3.46V65.67h-3.46Z" style="fill:#0b8bcb"/><path id="_Compound_Path_16" data-name="&lt;Compound Path&gt;" d="M302.82,61.33v-.06c0-3.26,2.54-4.86,6.23-4.86a12.63,12.63,0,0,1,4.06.63v-.37c0-2.14-1.32-3.28-3.75-3.28a10.52,10.52,0,0,0-4.31.94l-.91-2.72a12.86,12.86,0,0,1,5.68-1.23,6.73,6.73,0,0,1,5,1.69,6.25,6.25,0,0,1,1.63,4.66v8.94h-3.37V63.79a6.13,6.13,0,0,1-4.92,2.2C305.34,66,302.82,64.36,302.82,61.33Zm10.35-1.09v-1a9.46,9.46,0,0,0-3.43-.6c-2.23,0-3.55.94-3.55,2.51v.06c0,1.45,1.29,2.28,2.95,2.28C311.42,63.47,313.17,62.16,313.17,60.24Z" style="fill:#0b8bcb"/><path id="_Compound_Path_17" data-name="&lt;Compound Path&gt;" d="M329,45.67h3.26L343,59.5V45.67h3.46v20h-2.94l-11-14.23V65.67H329Z" style="fill:#0b8bcb"/><path id="_Compound_Path_18" data-name="&lt;Compound Path&gt;" d="M349.89,61.33v-.06c0-3.26,2.54-4.86,6.23-4.86a12.63,12.63,0,0,1,4.06.63v-.37c0-2.14-1.32-3.28-3.74-3.28a10.53,10.53,0,0,0-4.32.94l-.91-2.72a12.86,12.86,0,0,1,5.68-1.23,6.73,6.73,0,0,1,5,1.69,6.25,6.25,0,0,1,1.63,4.66v8.94h-3.37V63.79a6.13,6.13,0,0,1-4.92,2.2C352.41,66,349.89,64.36,349.89,61.33Zm10.35-1.09v-1a9.46,9.46,0,0,0-3.43-.6c-2.23,0-3.55.94-3.55,2.51v.06c0,1.45,1.29,2.28,2.95,2.28C358.49,63.47,360.24,62.16,360.24,60.24Z" style="fill:#0b8bcb"/><path id="_Compound_Path_19" data-name="&lt;Compound Path&gt;" d="M366.55,58.21v-.05a7.79,7.79,0,0,1,7.86-7.89,7.63,7.63,0,0,1,6,2.6l-2.17,2.32a5.05,5.05,0,0,0-3.89-1.89A4.55,4.55,0,0,0,370,58.1v.06A4.57,4.57,0,0,0,374.53,63a5.29,5.29,0,0,0,3.91-1.86l2.09,2.06a7.91,7.91,0,0,1-14-5Z" style="fill:#0b8bcb"/><path id="_Compound_Path_20" data-name="&lt;Compound Path&gt;" d="M383.47,45h3.72v3.29h-3.72Zm.14,5.6h3.46V65.67h-3.46Z" style="fill:#0b8bcb"/><path id="_Compound_Path_21" data-name="&lt;Compound Path&gt;" d="M390.47,58.21v-.05a8,8,0,0,1,16.09-.06v.06A7.89,7.89,0,0,1,398.48,66,7.81,7.81,0,0,1,390.47,58.21Zm12.64,0v-.05a4.67,4.67,0,0,0-4.63-4.86,4.53,4.53,0,0,0-4.55,4.8v.06a4.65,4.65,0,0,0,4.6,4.83A4.53,4.53,0,0,0,403.11,58.21ZM400.1,44l3.15,1.4-3.52,3.29h-2.6Z" style="fill:#0b8bcb"/><path id="_Compound_Path_22" data-name="&lt;Compound Path&gt;" d="M409.79,50.58h3.46V52.9A5.47,5.47,0,0,1,418,50.27c3.4,0,5.37,2.29,5.37,5.77v9.63h-3.46V57.1c0-2.34-1.17-3.69-3.23-3.69s-3.4,1.4-3.4,3.75v8.51h-3.46Z" style="fill:#0b8bcb"/></g></svg>