<svg id="Layer_1" data-name="Layer 1" xmlns="http://www.w3.org/2000/svg" viewBox="0 0 297 110"><title>BID</title><path d="M38.36,24.55V25A19.21,19.21,0,0,0,44,38.9,35.48,35.48,0,0,0,51.92,45a91.72,91.72,0,0,0,11.81,5.6c3.3,1.35,6.62,2.67,9.9,4.07a33.33,33.33,0,0,1,3.83,2,10.4,10.4,0,0,1,2.08,1.66,3.31,3.31,0,0,1,.52,4.42,11.2,11.2,0,0,0-1.45,3.52A6.21,6.21,0,0,0,79,69.79a11.52,11.52,0,0,0,1.9,3c.94,1.13,1.92,2.22,2.88,3.34a23.17,23.17,0,0,1,2.9,4,14.46,14.46,0,0,1,1.55,9.17,29,29,0,0,1-2.56,8c-.23.5-.61.55-1,.61A47.46,47.46,0,0,1,35.44,72.9a46.24,46.24,0,0,1-4.91-15.65A47.06,47.06,0,0,1,37.87,25c.12-.18.25-.34.37-.51Z" style="fill:#004e70"/><path d="M139.47,83.2V25c.2,0,.36,0,.53,0,9.26,0,18.52,0,27.78,0a22.86,22.86,0,0,1,9.41,2A14.23,14.23,0,0,1,186.05,41a13.47,13.47,0,0,1-5.57,11l-.57.44s0,.08-.08.18c.22.12.44.25.67.36a18.66,18.66,0,0,1,4.23,2.76A12.77,12.77,0,0,1,189,63.53a18.63,18.63,0,0,1-.23,7.4,13.85,13.85,0,0,1-6.85,9,23.43,23.43,0,0,1-8,2.72,41.67,41.67,0,0,1-7.06.55H139.47Zm13.84-12.66h10.2c1.59,0,3.18,0,4.77,0a9.89,9.89,0,0,0,4.33-1A4.29,4.29,0,0,0,175,66.28a7.57,7.57,0,0,0,.07-1.51A4.23,4.23,0,0,0,173,61.14a8.47,8.47,0,0,0-1.44-.65,13.18,13.18,0,0,0-4.49-.65c-4.36,0-8.72,0-13.08,0a4.67,4.67,0,0,0-.63.07Zm0-22.77h9.93c.94,0,1.88,0,2.82-.12a8.89,8.89,0,0,0,3.66-1,4.12,4.12,0,0,0,2.24-3.56,8.42,8.42,0,0,0,0-1.23A3.72,3.72,0,0,0,170.29,39a8,8,0,0,0-1.8-.9,10.59,10.59,0,0,0-3.71-.52c-3.56,0-7.13,0-10.7,0-.24,0-.47,0-.8,0C153.27,41,153.26,44.35,153.28,47.77Z" style="fill:#373736"/><path d="M90.82,96.45c.18-.31.35-.63.53-.93a70.23,70.23,0,0,1,5.84-8.18c4.44-5.43,8.94-10.82,13.43-16.21a22.45,22.45,0,0,0,2.74-3.9,9.65,9.65,0,0,0,1-2.71,5.08,5.08,0,0,0-1.24-4.43,10,10,0,0,0-2.85-2.2,29.63,29.63,0,0,0-5.76-2.31C101,54.52,97.39,53.76,93.81,53c-4.68-1-9.37-2-14-3.47a39.07,39.07,0,0,1-7.77-3.29,16.65,16.65,0,0,1-3.88-3,10.66,10.66,0,0,1-1.93-2.78,8,8,0,0,1,.16-7.63,15.26,15.26,0,0,1,3-3.8,36.62,36.62,0,0,1,6.43-4.78A105.63,105.63,0,0,1,89.1,17.58c4.69-2,9.41-4,14.11-6a1,1,0,0,1,1.06.14,47.34,47.34,0,0,1,15.5,17.45,44.89,44.89,0,0,1,4.85,15.29c1.88,15.13-2.4,28.33-12.83,39.45a45.94,45.94,0,0,1-20,12.4c-.29.09-.58.16-.88.24Zm-7-54.38c.68,0,1.21,0,1.73,0a3.18,3.18,0,0,0,.92-.17,1.25,1.25,0,0,0,.8-2,5.12,5.12,0,0,0-1.51-1.63,11.46,11.46,0,0,0-7.92-2.35,7.44,7.44,0,0,0-2.76.8.91.91,0,0,0-.48,1.38,4.81,4.81,0,0,0,1,1.25A8.42,8.42,0,0,0,78.45,41,17.23,17.23,0,0,0,83.81,42.07Zm10.48,2.45a7.27,7.27,0,0,0,.92-.13c1-.29,1.21-1,.45-1.77a5.57,5.57,0,0,0-1.24-.85,10.18,10.18,0,0,0-3.57-1.07c-.39,0-.81,0-1,.38a.9.9,0,0,0,.22,1A5.73,5.73,0,0,0,94.29,44.52Zm7,3.48a4.71,4.71,0,0,0,.59-.06c.33-.08.41-.3.23-.6a1.47,1.47,0,0,0-.29-.32,4.07,4.07,0,0,0-3.13-1c-.38,0-.84.08-.93.52s.35.65.69.8A7.69,7.69,0,0,0,101.32,48Z" style="fill:#004e70"/><path d="M213,83.2V25a3.89,3.89,0,0,1,.56-.07c7.86,0,15.73-.08,23.59,0A31,31,0,0,1,255,30.58a26.85,26.85,0,0,1,11.4,18,29.31,29.31,0,0,1-3,19.42,28.09,28.09,0,0,1-16,13.31,34,34,0,0,1-11.22,1.85c-7.38,0-14.76,0-22.14,0Zm14.18-13c.27,0,.46,0,.65,0h8a18.66,18.66,0,0,0,4.16-.43c5.8-1.34,9.7-4.78,11.37-10.53a18.68,18.68,0,0,0,0-10.35,14.32,14.32,0,0,0-6.19-8.52,16.21,16.21,0,0,0-8.64-2.5c-2.94,0-5.88,0-8.82,0a3.89,3.89,0,0,0-.56.07Z" style="fill:#373736"/><path d="M193.21,83.17V24.86c.22,0,.43-.05.64-.05h6.44a7.09,7.09,0,0,1,7.05,7V83.17Z" style="fill:#373736"/></svg>