<svg id="Layer_1" data-name="Layer 1" xmlns="http://www.w3.org/2000/svg" viewBox="0 0 120 120"><title>calendar-azul</title><path d="M99.74,26H84.39V18.8a1.6,1.6,0,1,0-3.2,0V26H38.81V18.8a1.6,1.6,0,0,0-3.2,0V26H20.26a1.61,1.61,0,0,0-1.6,1.61V101.2a1.6,1.6,0,0,0,1.6,1.6H99.74a1.6,1.6,0,0,0,1.6-1.6V27.57A1.61,1.61,0,0,0,99.74,26ZM35.61,29.17V37.5a1.6,1.6,0,0,0,3.2,0V29.17H81.19V37.5a1.6,1.6,0,1,0,3.2,0V29.17H98.14V42.91H21.86V29.17ZM21.86,99.6V46.11H98.14V99.6Z" style="fill:#033a52"/><path d="M73.48,58.58,53,79.07l-10-10a1.6,1.6,0,1,0-2.27,2.26l11.11,11.1a1.59,1.59,0,0,0,1.13.47,1.61,1.61,0,0,0,1.13-.47L75.74,60.84a1.6,1.6,0,0,0-2.26-2.26Z" style="fill:#033a52"/></svg>