<svg id="Layer_1" data-name="Layer 1" xmlns="http://www.w3.org/2000/svg" viewBox="0 0 712.79 183.79"><defs><style>.cls-1{fill:none;stroke:#2cd3f6;stroke-miterlimit:10;stroke-width:0.5px;opacity:0.5;}</style></defs><title>WEB IODC - Rediseño-re beta 2</title><path id="_Compound_Path_" data-name="&lt;Compound Path&gt;" class="cls-1" d="M.25,180.19H47.18V3.6H.25ZM219.65,91.9a46.21,46.21,0,1,1-46.21-46.21A46.21,46.21,0,0,1,219.65,91.9m45.44,0a91.65,91.65,0,1,0-91.65,91.64A91.65,91.65,0,0,0,265.09,91.9M409.7,127.76A84.71,84.71,0,0,0,417,92.41a85.13,85.13,0,0,0-7.39-35.58A91.44,91.44,0,0,0,390,28.68,88.55,88.55,0,0,0,328.33,3.74c-1,0-1.91,0-2.86.07V3.6H287.82v42h37.65c25.79,0,46.7,20.71,46.7,46.25a46,46,0,0,1-17.22,35.86l-.06,0q-1.4,1.13-2.89,2.14c-.43.3-.87.58-1.31.86q-1.08.69-2.21,1.32-.77.44-1.57.85-1.18.61-2.4,1.15c-.29.13-.55.28-.84.4a43.92,43.92,0,0,1-7.07,2.29,47.22,47.22,0,0,1-11.12,1.33H287.82v42h37.65v-.07c.88,0,1.76.07,2.64.07a90.21,90.21,0,0,0,62.11-24.72,87.91,87.91,0,0,0,19.47-27.71m116.6,52.42h37.65v-42H526.29c-25.79,0-46.7-20.71-46.7-46.25A46,46,0,0,1,496.82,56l.06,0q1.4-1.13,2.89-2.14c.43-.3.87-.58,1.31-.86q1.08-.69,2.2-1.32.78-.44,1.58-.85,1.18-.6,2.4-1.14c.29-.13.56-.28.85-.41A43.86,43.86,0,0,1,515.18,47a47.2,47.2,0,0,1,11.11-1.33h37.65V3.6H526.29v.07c-.88,0-1.76-.07-2.64-.07a90.21,90.21,0,0,0-62.11,24.72A87.93,87.93,0,0,0,442.07,56a84.72,84.72,0,0,0-7.27,35.36A85.16,85.16,0,0,0,442.18,127a91.46,91.46,0,0,0,19.58,28.15,88.55,88.55,0,0,0,61.67,24.94c1,0,1.91,0,2.86-.07Zm88.07-92.48h21.77V4h-34V22.41h12.22ZM690.55,62.5a10,10,0,0,1-2.94,7.16,10.86,10.86,0,0,1-3.22,2.22,9.15,9.15,0,0,1-3.83.83,9.4,9.4,0,0,1-3.94-.83,10.14,10.14,0,0,1-3.17-2.22,10.54,10.54,0,0,1-2.89-7.27,9.71,9.71,0,0,1,2.89-7.05,10,10,0,0,1,14.16,0,9.76,9.76,0,0,1,2.94,7.16m-.78-37.09a8.57,8.57,0,0,1-.72,3.44,10,10,0,0,1-1.94,2.94,9.5,9.5,0,0,1-2.89,2.05,8.54,8.54,0,0,1-3.67.78A8.81,8.81,0,0,1,674,31.9a9.09,9.09,0,0,1-2.67-6.61A8.77,8.77,0,0,1,674,18.85a9.25,9.25,0,0,1,15.77,6.55M708.43,31a24.11,24.11,0,0,0,.67-5.94A21.44,21.44,0,0,0,707,15.47a22.57,22.57,0,0,0-5.83-7.39,26.14,26.14,0,0,0-9-4.78,41.27,41.27,0,0,0-23.21,0,26.1,26.1,0,0,0-9,4.78,22.52,22.52,0,0,0-5.83,7.39A21.41,21.41,0,0,0,652,25.07q0,13,13.11,18.44-16.55,6.33-16.55,21.55A20.8,20.8,0,0,0,651,75a24.51,24.51,0,0,0,6.78,7.89A32.45,32.45,0,0,0,668,88.1,44.39,44.39,0,0,0,693.38,88a32.65,32.65,0,0,0,10.11-5.22,24.18,24.18,0,0,0,6.66-7.89,21,21,0,0,0,2.39-9.88q0-14.88-17.1-21.55a38.26,38.26,0,0,0,6.5-3.67,19.27,19.27,0,0,0,4.22-4.05A13.58,13.58,0,0,0,708.43,31"/></svg>