<svg id="Layer_1" xmlns="http://www.w3.org/2000/svg" viewBox="0 0 186.9 28.9"><style>.st0{fill:#fff}</style><path id="XMLID_42_" class="st0" d="M-74-352.2h2.1v-7.8H-74v7.8zm9.7-3.9c0 1.1-.9 2-2 2s-2-.9-2-2 .9-2 2-2 2 .9 2 2m2 0c0-2.2-1.8-4-4-4s-4 1.8-4 4 1.8 4 4 4 4-1.7 4-4m6.4 1.6c.2-.5.3-1 .3-1.6 0-.6-.1-1.1-.3-1.6-.2-.5-.5-.9-.9-1.2-.4-.3-.8-.6-1.2-.8-.5-.2-1-.3-1.5-.3h-1.8v1.9h1.7c1.1 0 2.1.9 2.1 2 0 .6-.3 1.2-.8 1.6l-.1.1h-.1s-.1 0-.1.1h-.1s-.1 0-.1.1c-.1 0-.2.1-.3.1-.2 0-.3.1-.5.1h-1.7v1.9h1.8c.5 0 1-.1 1.5-.3.5-.2.9-.5 1.2-.8.4-.4.7-.8.9-1.3m5.1 2.3h1.7v-1.9h-1.7c-1.1 0-2.1-.9-2.1-2 0-.6.3-1.2.8-1.6l.1-.1h.1s.1 0 .1-.1h.1s.1 0 .1-.1c.1 0 .2-.1.3-.1.2 0 .3-.1.5-.1h1.7v-1.9h-1.8c-.5 0-1 .1-1.5.3-.5.2-.9.5-1.2.8-.4.3-.6.7-.9 1.2-.2.5-.3 1-.3 1.6 0 .6.1 1.1.3 1.6.2.5.5.9.9 1.2.4.3.8.6 1.2.8.5.2 1 .3 1.5.3 0 .1.1.1.1.1zm3.9-4.1h1v-3.7h-1.5v.8h.5v2.9zm3.4-1.1v.2c0 .1-.1.1-.1.1l-.1.1h-.4c-.1 0-.1-.1-.1-.1l-.1-.1v-.2c0-.1 0-.2.1-.3.1-.1.2-.1.3-.1.1 0 .2 0 .3.1 0 .1.1.2.1.3m-.1-1.6v.2s0 .1-.1.1l-.1.1h-.2c-.1 0-.2 0-.3-.1-.1-.1-.1-.2-.1-.3 0-.1 0-.2.1-.3.1-.1.2-.1.3-.1.1 0 .2 0 .3.1.1.1.1.2.1.3m.9.2v-.3c0-.2 0-.3-.1-.4-.1-.1-.1-.2-.3-.3-.1-.1-.2-.2-.4-.2s-.3-.1-.5-.1-.4 0-.5.1c-.2 0-.3.1-.4.2l-.3.3c-.1.1-.1.3-.1.4 0 .4.2.7.6.8-.5.2-.7.5-.7 1 0 .2 0 .3.1.4l.3.3c.1.1.3.2.4.2.2.1.4.1.6.1.2 0 .4 0 .6-.1.2-.1.3-.1.4-.2l.3-.3c.1-.1.1-.3.1-.4 0-.4-.3-.8-.8-1 .1-.1.2-.1.3-.2l.2-.2c.1.1.1 0 .2-.1"/><path id="XMLID_1_" class="st0" d="M0 26.3h6.6v-25H0v25zm31-12.5c0 3.6-2.9 6.5-6.5 6.5S18 17.4 18 13.8s2.9-6.5 6.5-6.5 6.5 2.9 6.5 6.5m6.4 0c0-7.2-5.8-13-13-13s-13 5.8-13 13 5.8 13 13 13 13-5.8 13-13m20.5 5.1c.7-1.5 1-3.2 1-5 0-1.8-.3-3.5-1-5s-1.6-2.9-2.8-4c-1.1-1.1-2.5-2-4-2.6-1.5-.6-3.1-.9-4.7-.9h-5.7v5.9H46c3.6 0 6.6 2.9 6.6 6.5 0 2-.9 3.9-2.4 5.1-.1.1-.3.2-.4.3-.1 0-.1.1-.2.1-.1.1-.2.1-.3.2-.1 0-.1.1-.2.1-.1.1-.2.1-.3.2 0 0-.1 0-.1.1-.3.1-.7.2-1 .3-.5.1-1 .2-1.6.2h-5.3v5.9h5.6c1.7 0 3.3-.3 4.8-.9 1.5-.6 2.9-1.5 4-2.6s2-2.4 2.7-3.9m16.5 7.4h5.3v-5.9h-5.3c-3.6 0-6.6-2.9-6.6-6.5 0-2 .9-3.9 2.4-5.1.1-.1.3-.2.4-.3.1 0 .1-.1.2-.1.1-.1.2-.1.3-.2.1 0 .1-.1.2-.1.1-.1.2-.1.3-.2 0 0 .1 0 .1-.1.3-.1.7-.2 1-.3.5-.1 1-.2 1.6-.2h5.3v-6h-5.7c-1.7 0-3.3.3-4.8.9-1.5.6-2.9 1.5-4 2.6-1.2 1.1-2.1 2.4-2.8 3.9-.7 1.5-1 3.2-1 5s.3 3.5 1 5 1.6 2.9 2.8 4c1.1 1.1 2.5 2 4 2.6 1.5.6 3.1.9 4.7.9.3.1.4.1.6.1zm12.4-13.1h3.1V1.4h-4.8V4h1.7v9.2zm10.8-3.5c0 .2 0 .4-.1.6-.1.2-.2.3-.3.5-.1.1-.3.2-.5.3-.2.1-.4.1-.5.1-.2 0-.4 0-.6-.1-.2-.1-.3-.2-.4-.3-.1-.1-.2-.3-.3-.5-.1-.2-.1-.4-.1-.6 0-.4.1-.7.4-1 .3-.3.6-.4 1-.4s.7.1 1 .4c.3.2.4.6.4 1m-.1-5.3c0 .2 0 .3-.1.5s-.2.3-.3.4c-.1.1-.3.2-.4.3-.2.1-.3.1-.5.1-.4 0-.7-.1-.9-.4-.3-.3-.4-.6-.4-.9 0-.4.1-.7.4-.9.3-.3.6-.4.9-.4.4 0 .7.1.9.4.3.3.4.6.4.9m2.6.8c.1-.2.1-.5.1-.8 0-.5-.1-1-.3-1.4-.2-.4-.5-.8-.8-1-.4-.3-.8-.5-1.3-.7-.5-.2-1-.2-1.6-.2-.6 0-1.1.1-1.6.2-.6.2-1 .4-1.3.7-.4.3-.6.6-.8 1-.2.4-.3.9-.3 1.4 0 1.2.6 2.1 1.9 2.6-1.6.6-2.3 1.6-2.3 3 0 .5.1 1 .3 1.4.2.4.5.8 1 1.1.4.3.9.6 1.4.7.5.2 1.1.3 1.8.3s1.3-.1 1.8-.3c.5-.2 1-.4 1.4-.7.4-.3.7-.7.9-1.1.2-.4.3-.9.3-1.4 0-1.4-.8-2.4-2.4-3 .4-.2.7-.3.9-.5l.6-.6c.2-.2.3-.4.3-.7"/><path d="M112.1 1.2h1.6v5.7h-1.6V1.2zm3 0h1.5l2.3 3v-3h1.6v5.7h-1.4l-2.4-3.1v3.1h-1.6V1.2zm8.1 1.4h-1.7V1.2h5v1.4h-1.7v4.3h-1.6V2.6zm4.4-1.4h4.6v1.3h-3v.9h2.7v1.2h-2.7v.9h3v1.3h-4.6V1.2zm5.8 0h2.7c.9 0 1.5.2 1.8.6.3.3.5.8.5 1.3 0 .9-.5 1.5-1.2 1.8l1.4 2h-1.8l-1.1-1.7h-.7v1.7h-1.6V1.2zm2.6 2.7c.5 0 .8-.3.8-.7 0-.5-.3-.7-.8-.7h-1v1.4h1zm3.6-2.7h1.5l2.3 3v-3h1.6v5.7h-1.4l-2.4-3.1v3.1h-1.6V1.2zm8.7 0h1.5l2.4 5.7h-1.7l-.4-1H148l-.4 1H146l2.3-5.7zm1.4 3.4l-.6-1.6-.6 1.6h1.2zm4.2-2h-1.7V1.2h5v1.4h-1.7v4.3h-1.6V2.6zm4.4-1.4h1.6v5.7h-1.6V1.2zm2.8 2.9c0-1.6 1.3-3 3.1-3s3 1.3 3 2.9c0 1.6-1.3 2.9-3.1 2.9s-3-1.2-3-2.8zm4.5 0c0-.8-.6-1.5-1.5-1.5s-1.4.7-1.4 1.5.6 1.5 1.5 1.5c.8 0 1.4-.7 1.4-1.5zm2.8-2.9h1.5l2.3 3v-3h1.6v5.7h-1.4L170 3.8v3.1h-1.6V1.2zm8.8 0h1.5l2.4 5.7h-1.7l-.4-1h-2.2l-.4 1h-1.6l2.4-5.7zm1.3 3.4l-.6-1.6-.6 1.6h1.2zm3.5-3.4h1.6v4.3h2.7v1.4H182V1.2zm-70.2 12.6c0-1.6 1.3-3 3.1-3s3 1.3 3 2.9c0 1.6-1.3 2.9-3.1 2.9-1.7.1-3-1.2-3-2.8zm4.5 0c0-.8-.6-1.5-1.5-1.5s-1.4.7-1.4 1.5.6 1.5 1.5 1.5 1.4-.7 1.4-1.5zm2.8-2.9h2.4c1.4 0 2.3.7 2.3 2s-1 2-2.4 2h-.8v1.6H119v-5.6zm2.4 2.9c.6 0 .9-.3.9-.7 0-.5-.3-.7-.9-.7h-.7v1.5h.7zm3.5-2.9h4.6v1.3h-3v.9h2.7v1.2h-2.7v.9h3v1.3H125v-5.6zm5.8 0h1.5l2.3 3v-3h1.6v5.7h-1.4l-2.4-3.1v3.1h-1.6v-5.7zm9.4 0h2.2c2 0 3.2 1.2 3.2 2.8 0 1.6-1.2 2.9-3.2 2.9h-2.2v-5.7zm1.6 1.4v2.9h.6c.9 0 1.6-.5 1.6-1.4 0-.9-.6-1.4-1.6-1.4h-.6zm6.6-1.4h1.5l2.4 5.7h-1.7l-.4-1H148l-.4 1H146l2.4-5.7zm1.4 3.5l-.6-1.6-.6 1.6h1.2zm4.1-2.1h-1.7v-1.4h5v1.4h-1.7v4.3h-1.6v-4.3zm5.6-1.4h1.5l2.4 5.7h-1.7l-.4-1h-2.2l-.4 1h-1.6l2.4-5.7zm1.4 3.5l-.6-1.6-.6 1.6h1.2zm-49.1 9.1c0-1.7 1.3-3 3-3 1.2 0 1.9.5 2.4 1.2l-1.2.9c-.3-.4-.7-.7-1.2-.7-.8 0-1.4.7-1.4 1.5 0 .9.6 1.5 1.4 1.5.6 0 .9-.3 1.3-.7l1.2.8c-.5.7-1.3 1.3-2.5 1.3-1.7.1-3-1.1-3-2.8zm6.2 0c0-1.6 1.3-3 3.1-3s3 1.3 3 2.9c0 1.6-1.3 3-3.1 3s-3-1.3-3-2.9zm4.5 0c0-.8-.6-1.5-1.5-1.5s-1.4.7-1.4 1.5.6 1.5 1.5 1.5c.8 0 1.4-.7 1.4-1.5zm2.8-2.9h1.5l2.3 3v-3h1.6v5.7h-1.4l-2.4-3.1v3.1h-1.6v-5.7zm6.8 0h4.5V22h-3v1h2.7v1.3h-2.7v2H132v-5.7zm5.6 0h4.6V22h-3v.9h2.7v1.2h-2.7v.9h3v1.3h-4.6v-5.7zm5.9 0h2.7c.9 0 1.5.2 1.8.6.3.3.5.8.5 1.3 0 .9-.5 1.5-1.2 1.8l1.4 2H147l-1.1-1.7h-.7v1.7h-1.6v-5.7zm2.6 2.8c.5 0 .8-.3.8-.7 0-.5-.3-.7-.9-.7h-1v1.4h1.1zm3.6-2.8h4.6V22h-3v.9h2.7v1.2h-2.7v.9h3v1.3h-4.6v-5.7zm5.8 0h1.5l2.3 3v-3h1.6v5.7h-1.4l-2.4-3.1v3.1h-1.6v-5.7zm6.6 2.9c0-1.7 1.3-3 3-3 1.2 0 1.9.5 2.4 1.2l-1.2.9c-.3-.4-.7-.7-1.2-.7-.8 0-1.4.7-1.4 1.5 0 .9.6 1.5 1.4 1.5.6 0 .9-.3 1.3-.7l1.2.8c-.5.7-1.3 1.3-2.5 1.3-1.7.1-3-1.1-3-2.8zm6.5-2.9h4.6V22h-3v.9h2.7v1.2h-2.7v.9h3v1.3h-4.6v-5.7z" fill="#2cd3f6"/></svg>