<svg id="Layer_1" data-name="Layer 1" xmlns="http://www.w3.org/2000/svg" viewBox="0 0 430 110"><title>opendatafordevelopment</title><path d="M201.52,67.72v-.44h1.22V65.87c0-1,.68-1.36,1.51-1.36a3.07,3.07,0,0,1,.6.07V65a3.07,3.07,0,0,0-.6-.07c-.56,0-1,.2-1,1v1.37h1.43v.44h-1.43v6.41h-.51V67.72Z" style="fill:#fff"/><path d="M208.1,73.85c1.72,0,2.64-1.5,2.64-3.14s-.92-3.15-2.64-3.15-2.64,1.51-2.64,3.15.92,3.14,2.64,3.14m0-6.73c2,0,3.15,1.64,3.15,3.59s-1.14,3.58-3.15,3.58S205,72.65,205,70.71s1.13-3.59,3.14-3.59" style="fill:#fff"/><path d="M212.74,68.8h0a2.62,2.62,0,0,1,2.63-1.56v.51a2.35,2.35,0,0,0-1.9.66,2.59,2.59,0,0,0-.77,2v3.74h-.51V67.28h.51Z" style="fill:#fff"/><path d="M224.52,70.72c0-1.6-.78-3.16-2.54-3.16s-2.55,1.51-2.55,3.16.8,3.13,2.56,3.13,2.53-1.56,2.53-3.13m0,2h0a2.74,2.74,0,0,1-2.63,1.62c-2.06,0-3-1.68-3-3.57s1-3.6,3.06-3.6a2.59,2.59,0,0,1,2.53,1.7h0v-4.2h.5v9.51h-.5Z" style="fill:#fff"/><path d="M231.68,70.33a2.6,2.6,0,0,0-2.5-2.77,2.75,2.75,0,0,0-2.52,2.77Zm-5,.44c0,1.62.82,3.08,2.52,3.08a2.37,2.37,0,0,0,2.45-2h.5a2.75,2.75,0,0,1-2.95,2.48c-2,0-3.06-1.57-3-3.46s1-3.71,3-3.71,3.1,1.7,3,3.65Z" style="fill:#fff"/><polygon points="235.79 74.13 235.16 74.13 232.4 67.28 232.99 67.28 235.47 73.55 235.49 73.55 237.81 67.28 238.37 67.28 235.79 74.13" style="fill:#fff"/><path d="M244.12,70.33a2.6,2.6,0,0,0-2.51-2.77,2.75,2.75,0,0,0-2.52,2.77Zm-5,.44c0,1.62.83,3.08,2.52,3.08a2.37,2.37,0,0,0,2.45-2h.51a2.76,2.76,0,0,1-3,2.48c-2,0-3.05-1.57-3-3.46s1-3.71,3-3.71,3.11,1.7,3,3.65Z" style="fill:#fff"/><rect x="245.73" y="64.62" width="0.51" height="9.52" style="fill:#fff"/><path d="M250.48,73.85c1.71,0,2.63-1.5,2.63-3.14s-.92-3.15-2.63-3.15-2.64,1.51-2.64,3.15.92,3.14,2.64,3.14m0-6.73c2,0,3.14,1.64,3.14,3.59s-1.13,3.58-3.14,3.58-3.15-1.64-3.15-3.58,1.13-3.59,3.15-3.59" style="fill:#fff"/><path d="M260.33,70.72c0-1.56-.74-3.16-2.58-3.16s-2.5,1.53-2.5,3.16.57,3.13,2.5,3.13,2.58-1.44,2.58-3.13m-5.1-1.87h0a2.56,2.56,0,0,1,2.49-1.73c2.11,0,3.08,1.67,3.08,3.6,0,2.08-1,3.57-3.08,3.57a2.44,2.44,0,0,1-2.49-1.58h0v3.88h-.5V67.28h.5Z" style="fill:#fff"/><path d="M261.83,67.28h.51v1.4h0a2.21,2.21,0,0,1,2.14-1.56,1.92,1.92,0,0,1,2.07,1.45h0a2.18,2.18,0,0,1,2.18-1.45,2,2,0,0,1,2.14,2.33v4.68h-.5V69.44c0-1.75-1.24-1.88-1.64-1.88-1.24,0-2.15.88-2.15,2.52v4h-.51V69.44c0-1.72-1.17-1.88-1.61-1.88a2.28,2.28,0,0,0-2.17,2.52v4h-.51Z" style="fill:#fff"/><path d="M277.46,70.33A2.6,2.6,0,0,0,275,67.56a2.75,2.75,0,0,0-2.52,2.77Zm-5,.44c0,1.62.83,3.08,2.52,3.08a2.37,2.37,0,0,0,2.45-2h.51a2.76,2.76,0,0,1-3,2.48c-2,0-3.05-1.57-3-3.46s1-3.71,3-3.71,3.11,1.7,3,3.65Z" style="fill:#fff"/><path d="M279,67.28h.51v1.47h0a2.54,2.54,0,0,1,2.45-1.63c2.42,0,2.44,1.93,2.44,2.77v4.24h-.5V69.8c0-.7-.08-2.24-1.95-2.24-1.53,0-2.46,1.19-2.46,2.87v3.7H279Z" style="fill:#fff"/><path d="M288.19,67.72h-1.5v4.79c0,1.1.52,1.21,1.48,1.18v.44c-1,.07-2-.08-2-1.62V67.72h-1.27v-.44h1.27V65.15h.5v2.13h1.5Z" style="fill:#fff"/><path d="M292.42,67.28h.51v1.47h0a2.52,2.52,0,0,1,2.45-1.63c2.41,0,2.44,1.93,2.44,2.77v4.24h-.51V69.8c0-.7-.08-2.24-1.94-2.24-1.54,0-2.47,1.19-2.47,2.87v3.7h-.51Z" style="fill:#fff"/><path d="M304.37,70.33a2.6,2.6,0,0,0-2.51-2.77,2.75,2.75,0,0,0-2.52,2.77Zm-5,.44c0,1.62.83,3.08,2.52,3.08a2.37,2.37,0,0,0,2.45-2h.51a2.76,2.76,0,0,1-3,2.48c-2,0-3.05-1.57-3-3.46s1-3.71,3-3.71,3.11,1.7,3,3.65Z" style="fill:#fff"/><path d="M308.38,67.72h-1.49v4.79c0,1.1.52,1.21,1.48,1.18v.44c-1,.07-2-.08-2-1.62V67.72h-1.27v-.44h1.27V65.15h.51v2.13h1.49Z" style="fill:#fff"/><polygon points="310.82 73.55 310.85 73.55 312.71 67.28 313.39 67.28 315.27 73.55 315.3 73.55 317.22 67.28 317.78 67.28 315.58 74.13 314.95 74.13 313.07 67.92 313.05 67.92 311.15 74.13 310.51 74.13 308.34 67.28 308.89 67.28 310.82 73.55" style="fill:#fff"/><path d="M321.12,73.85c1.72,0,2.64-1.5,2.64-3.14s-.92-3.15-2.64-3.15-2.64,1.51-2.64,3.15.92,3.14,2.64,3.14m0-6.73c2,0,3.15,1.64,3.15,3.59s-1.13,3.58-3.15,3.58S318,72.65,318,70.71s1.13-3.59,3.14-3.59" style="fill:#fff"/><path d="M325.76,68.8h0a2.62,2.62,0,0,1,2.63-1.56v.51a2.33,2.33,0,0,0-1.89.66,2.6,2.6,0,0,0-.78,2v3.74h-.5V67.28h.5Z" style="fill:#fff"/><polygon points="328.79 64.62 329.3 64.62 329.3 70.92 333.52 67.28 334.25 67.28 331.25 69.84 334.47 74.13 333.77 74.13 330.86 70.23 329.3 71.55 329.3 74.13 328.79 74.13 328.79 64.62" style="fill:#fff"/><path d="M133.85,58.3a11.6,11.6,0,1,1-11.6-11.59,11.6,11.6,0,0,1,11.6,11.59" style="fill:#fff"/><path d="M146.33,87.66a12.08,12.08,0,1,1-12.07-12.08,12.07,12.07,0,0,1,12.07,12.08" style="fill:#fff"/><path d="M155.4,28.68a9.21,9.21,0,1,1,9.21-9.21,9.21,9.21,0,0,1-9.21,9.21" style="fill:#fff"/><path d="M158.11,96.86a4.58,4.58,0,1,1,4.58-4.57,4.57,4.57,0,0,1-4.58,4.57" style="fill:#fff"/><path d="M104.15,32.16a8.62,8.62,0,1,1-8.62,8.62,8.62,8.62,0,0,1,8.62-8.62" style="fill:#fff"/><path d="M127.44,28.58a7.58,7.58,0,1,1-7.58,7.57,7.57,7.57,0,0,1,7.58-7.57" style="fill:#fff"/><path d="M112.13,67.93A6.1,6.1,0,1,1,106,74a6.1,6.1,0,0,1,6.1-6.1" style="fill:#fff"/><path d="M174.07,23.28a4.1,4.1,0,1,1,2,5.45,4.08,4.08,0,0,1-2-5.45" style="fill:#fff"/><path d="M174.31,54a3.22,3.22,0,0,0-3,1.64,9.76,9.76,0,0,0-.94,4.74,9.38,9.38,0,0,0,1.11,4.83A3.77,3.77,0,0,0,175,67.08c.47,0,.91,0,1.32,0s.82-.07,1.26-.13v-12a8,8,0,0,0-1.5-.64,6.13,6.13,0,0,0-1.78-.25" style="fill:#fff"/><path d="M151.5,53.94a3.77,3.77,0,0,0-3.41,1.81,8.8,8.8,0,0,0-1.15,4.76A9.57,9.57,0,0,0,148,65.3a3.63,3.63,0,0,0,3.4,1.83,3.78,3.78,0,0,0,3.41-1.83A9,9,0,0,0,156,60.51a9.4,9.4,0,0,0-1.06-4.76,3.63,3.63,0,0,0-3.4-1.81" style="fill:#fff"/><path d="M183.37,70.88a23.5,23.5,0,0,1-3.9.85,31.73,31.73,0,0,1-4.51.33q-5.16,0-7.81-3c-1.77-2-2.65-4.82-2.65-8.36s.74-6.44,2.23-8.52A7.57,7.57,0,0,1,173.32,49a10.4,10.4,0,0,1,2.3.26,7.48,7.48,0,0,1,2,.73V40l5.78-1Zm-22.25-5.65A11.18,11.18,0,0,1,159,68.91a9.5,9.5,0,0,1-3.27,2.4,11.15,11.15,0,0,1-8.49,0,9.77,9.77,0,0,1-3.29-2.4,10.88,10.88,0,0,1-2.13-3.68,14.29,14.29,0,0,1-.75-4.77,13.85,13.85,0,0,1,.77-4.71A10.89,10.89,0,0,1,144,52.09a9.39,9.39,0,0,1,3.31-2.35,11.11,11.11,0,0,1,8.38,0A9.46,9.46,0,0,1,159,52.09a10.38,10.38,0,0,1,2.14,3.66,14.1,14.1,0,0,1,.75,4.71,14.29,14.29,0,0,1-.75,4.77m3.54-35.56a28.27,28.27,0,1,0,28.27,28.27,28.27,28.27,0,0,0-28.27-28.27" style="fill:#fff"/><path d="M205.58,48.17c0,1.06,0,2.06.13,3a9.84,9.84,0,0,0,.49,2.42,4,4,0,0,0,1.05,1.64,3,3,0,0,0,3.6,0,4,4,0,0,0,1.06-1.65,10.21,10.21,0,0,0,.5-2.43c.08-.92.12-1.92.12-3s0-2.06-.12-3a9.81,9.81,0,0,0-.5-2.43,4,4,0,0,0-1-1.63,3,3,0,0,0-3.62,0,3.94,3.94,0,0,0-1.05,1.64,10.23,10.23,0,0,0-.49,2.43c-.09.92-.13,1.92-.13,3m-4.43,0q0-5.67,2.09-8.56a6.79,6.79,0,0,1,5.82-2.89,6.71,6.71,0,0,1,5.88,2.89q2,2.89,2,8.56c0,3.78-.68,6.64-2.05,8.56a7.39,7.39,0,0,1-11.72,0c-1.36-1.92-2-4.78-2-8.56" style="fill:#fff"/><path d="M229.53,51a6.9,6.9,0,0,0-.89-3.67,3,3,0,0,0-2.7-1.43,10,10,0,0,0-1.06.05l-1,.09v9.15a4.09,4.09,0,0,0,1.14.46,6.2,6.2,0,0,0,1.42.17,2.49,2.49,0,0,0,2.3-1.26,7,7,0,0,0,.75-3.56m4.43-.14a14,14,0,0,1-.43,3.53,8.53,8.53,0,0,1-1.24,2.76,5.55,5.55,0,0,1-2.06,1.79,6.1,6.1,0,0,1-2.87.64,8.29,8.29,0,0,1-3.44-.81V65h-4.36V43a18.54,18.54,0,0,1,3-.64,25.63,25.63,0,0,1,3.46-.25,7.45,7.45,0,0,1,5.92,2.34A9.29,9.29,0,0,1,234,50.83" style="fill:#fff"/><path d="M247.21,49.24a5,5,0,0,0-.17-1.3,3.39,3.39,0,0,0-.57-1.12,2.86,2.86,0,0,0-1-.79,3.35,3.35,0,0,0-1.49-.31,3.47,3.47,0,0,0-1.47.29,2.79,2.79,0,0,0-1,.78,3.81,3.81,0,0,0-.64,1.13,6,6,0,0,0-.3,1.32ZM236.05,51a10.23,10.23,0,0,1,.67-3.86,8.55,8.55,0,0,1,1.77-2.79A7.43,7.43,0,0,1,241,42.64a7.7,7.7,0,0,1,2.91-.57,7.08,7.08,0,0,1,5.6,2.18q1.9,2.19,1.91,6.37c0,.28,0,.58,0,.88s0,.56,0,.75H240.55a3,3,0,0,0,1.35,2.57,6,6,0,0,0,3.47.94,10.7,10.7,0,0,0,2.5-.29,18.54,18.54,0,0,0,2-.56l.61,3.72a20.81,20.81,0,0,1-2.42.66,14.63,14.63,0,0,1-2.87.26,12.12,12.12,0,0,1-3.81-.55,7.71,7.71,0,0,1-2.87-1.63,7.19,7.19,0,0,1-1.83-2.68,10.06,10.06,0,0,1-.63-3.72" style="fill:#fff"/><path d="M254,43c.78-.21,1.74-.41,2.89-.6a22.81,22.81,0,0,1,3.74-.29,8.75,8.75,0,0,1,3.3.55A5,5,0,0,1,266,44.25a6.25,6.25,0,0,1,1.08,2.41,14.22,14.22,0,0,1,.32,3.11v9.39h-4.36V50.33a7.83,7.83,0,0,0-.53-3.36,2.21,2.21,0,0,0-2.17-1c-.33,0-.65,0-1,0s-.66.06-1,.11V59.16H254Z" style="fill:#fff"/><path d="M275.29,55.62a2.38,2.38,0,0,0,.39,0h.39a5,5,0,0,0,2.5-.57,4.33,4.33,0,0,0,1.63-1.55,6.9,6.9,0,0,0,.89-2.36,15.52,15.52,0,0,0,.26-3,18.06,18.06,0,0,0-.21-2.77A7.94,7.94,0,0,0,280.4,43a4.48,4.48,0,0,0-1.46-1.65,4.17,4.17,0,0,0-2.37-.62l-.64,0a3,3,0,0,0-.64.09Zm10.5-7.45a15.47,15.47,0,0,1-.77,5.19,9.24,9.24,0,0,1-2.1,3.5,8,8,0,0,1-3.21,2,12.77,12.77,0,0,1-4.1.63,21.51,21.51,0,0,1-2.29-.13,21.81,21.81,0,0,1-2.39-.41V37.5a22.53,22.53,0,0,1,2.8-.43c.88-.07,1.69-.1,2.45-.1a11.57,11.57,0,0,1,3.95.64,7.35,7.35,0,0,1,3,2,9.6,9.6,0,0,1,1.94,3.47,16.53,16.53,0,0,1,.69,5.09" style="fill:#fff"/><path d="M294.6,56c.47,0,.93,0,1.38,0s.84,0,1.17-.08V52.11c-.28,0-.63-.09-1-.13s-.77,0-1.1,0a9.29,9.29,0,0,0-1.31.09,4.35,4.35,0,0,0-1.12.3,1.82,1.82,0,0,0-.76.6,2,2,0,0,0,.57,2.64,4.45,4.45,0,0,0,2.2.48m-.39-14a10.43,10.43,0,0,1,3.42.48,5.4,5.4,0,0,1,2.18,1.35A5.14,5.14,0,0,1,301,46a10.59,10.59,0,0,1,.35,2.81v9.93c-.64.14-1.58.31-2.83.5a28.43,28.43,0,0,1-4.22.28,13.43,13.43,0,0,1-2.89-.28,6,6,0,0,1-2.22-.94,4.43,4.43,0,0,1-1.42-1.7,6,6,0,0,1-.49-2.57,5,5,0,0,1,.56-2.45,4.6,4.6,0,0,1,1.53-1.6,6.61,6.61,0,0,1,2.2-.86,12.07,12.07,0,0,1,2.58-.27,14.37,14.37,0,0,1,3,.28v-.53a2.89,2.89,0,0,0-.78-2.07,3.58,3.58,0,0,0-2.7-.84,15.54,15.54,0,0,0-2.39.18,10.34,10.34,0,0,0-1.86.43l-.6-3.51a14.18,14.18,0,0,1,2.3-.52,20.6,20.6,0,0,1,3.09-.23" style="fill:#fff"/><path d="M306.78,46.12H303V42.5h3.8V38.31l4.36-.7V42.5h7v3.62h-7v6.73a5.5,5.5,0,0,0,.17,1.49,2.23,2.23,0,0,0,.5.89,1.56,1.56,0,0,0,.78.42,4.65,4.65,0,0,0,1,.11c.4,0,.77,0,1.12,0a7.88,7.88,0,0,0,1-.12,6.68,6.68,0,0,0,1-.27,11.62,11.62,0,0,0,1.12-.46l.6,3.76a11.12,11.12,0,0,1-2.61.71,18.17,18.17,0,0,1-2.71.21,12.76,12.76,0,0,1-2.69-.25,4.35,4.35,0,0,1-2-.95,4.51,4.51,0,0,1-1.24-2,11.2,11.2,0,0,1-.42-3.38Z" style="fill:#fff"/><path d="M327.39,56c.47,0,.93,0,1.38,0s.84,0,1.17-.08V52.11c-.28,0-.62-.09-1-.13s-.77,0-1.1,0a9.29,9.29,0,0,0-1.31.09,4.25,4.25,0,0,0-1.12.3,1.82,1.82,0,0,0-.76.6,2,2,0,0,0,.56,2.64,4.45,4.45,0,0,0,2.2.48m-.39-14a10.43,10.43,0,0,1,3.42.48,5.33,5.33,0,0,1,2.18,1.35A4.93,4.93,0,0,1,333.77,46a10.18,10.18,0,0,1,.36,2.81v9.93c-.64.14-1.59.31-2.84.5a28.34,28.34,0,0,1-4.22.28,13.56,13.56,0,0,1-2.89-.28,5.91,5.91,0,0,1-2.21-.94,4.34,4.34,0,0,1-1.42-1.7,6,6,0,0,1-.5-2.57,4.85,4.85,0,0,1,.57-2.45,4.66,4.66,0,0,1,1.52-1.6,6.61,6.61,0,0,1,2.2-.86,12.17,12.17,0,0,1,2.59-.27,14.27,14.27,0,0,1,3,.28v-.53a2.89,2.89,0,0,0-.78-2.07,3.55,3.55,0,0,0-2.69-.84,15.35,15.35,0,0,0-2.39.18,10.69,10.69,0,0,0-1.87.43l-.6-3.51a14.34,14.34,0,0,1,2.31-.52,20.57,20.57,0,0,1,3.08-.23" style="fill:#fff"/><path d="M133,16.32a4.52,4.52,0,1,1-4.51,4.51A4.51,4.51,0,0,1,133,16.32" style="fill:#fff"/></svg>